<svg xmlns="http://www.w3.org/2000/svg" xmlns:xlink="http://www.w3.org/1999/xlink" width="86" height="86" viewBox="0 0 86 86">
  <defs>
    <filter id="Ellipse_11513" x="0" y="0" width="86" height="86" filterUnits="userSpaceOnUse">
      <feOffset dy="3" input="SourceAlpha"/>
      <feGaussianBlur stdDeviation="3" result="blur"/>
      <feFlood flood-opacity="0.161"/>
      <feComposite operator="in" in2="blur"/>
      <feComposite in="SourceGraphic"/>
    </filter>
  </defs>
  <g id="Group_1143525" data-name="Group 1143525" transform="translate(-187.101 -5399)">
    <g id="Group_1143477" data-name="Group 1143477" transform="translate(0.101 4242)">
      <g transform="matrix(1, 0, 0, 1, 187, 1157)" filter="url(#Ellipse_11513)">
        <g id="Ellipse_11513-2" data-name="Ellipse 11513" transform="translate(9 6)" fill="#fce8a6" stroke="#f8c624" stroke-width="3">
          <circle cx="34" cy="34" r="34" stroke="none"/>
          <circle cx="34" cy="34" r="32.5" fill="none"/>
        </g>
      </g>
    </g>
    <g id="process_3488837" transform="translate(198.101 5405)">
      <path id="Path_904917" data-name="Path 904917" d="M46,37.37V34.63a1.3,1.3,0,0,0-1.29-1.3,1.32,1.32,0,0,1-1.26-.9,12.09,12.09,0,0,0-.83-2,1.32,1.32,0,0,1,.25-1.54,1.29,1.29,0,0,0,0-1.83l-1.94-1.94a1.29,1.29,0,0,0-1.83,0,1.32,1.32,0,0,1-1.54.25,12.09,12.09,0,0,0-2-.83,1.32,1.32,0,0,1-.9-1.26A1.3,1.3,0,0,0,33.37,22H30.63a1.3,1.3,0,0,0-1.3,1.29,1.26,1.26,0,0,1-.88,1.22,11.84,11.84,0,0,0-2,.84,1.32,1.32,0,0,1-1.54-.25,1.29,1.29,0,0,0-1.83,0l-1.94,1.94a1.29,1.29,0,0,0,0,1.83,1.32,1.32,0,0,1,.25,1.54,12.09,12.09,0,0,0-.83,2,1.32,1.32,0,0,1-1.26.9A1.3,1.3,0,0,0,18,34.63v2.74a1.3,1.3,0,0,0,1.29,1.3,1.32,1.32,0,0,1,1.26.9,12.09,12.09,0,0,0,.83,2,1.32,1.32,0,0,1-.25,1.54,1.29,1.29,0,0,0,0,1.83l1.94,1.94a1.29,1.29,0,0,0,1.83,0,1.32,1.32,0,0,1,1.54-.25,12.09,12.09,0,0,0,2,.83,1.32,1.32,0,0,1,.9,1.26A1.3,1.3,0,0,0,30.63,50h2.74a1.3,1.3,0,0,0,1.3-1.29,1.32,1.32,0,0,1,.9-1.26,12.09,12.09,0,0,0,2-.83,1.32,1.32,0,0,1,1.54.25,1.29,1.29,0,0,0,1.83,0l1.94-1.94a1.29,1.29,0,0,0,0-1.83,1.32,1.32,0,0,1-.25-1.54,11.84,11.84,0,0,0,.84-2,1.26,1.26,0,0,1,1.22-.88A1.3,1.3,0,0,0,46,37.37Z" fill="#65788f"/>
      <path id="Path_904918" data-name="Path 904918" d="M33.37,51H30.63a2.3,2.3,0,0,1-2.3-2.29.31.31,0,0,0-.2-.31A13.09,13.09,0,0,1,26,47.51a.31.31,0,0,0-.36.07,2.3,2.3,0,0,1-3.22,0l-1.95-1.94a2.31,2.31,0,0,1,0-3.25.31.31,0,0,0,.07-.36,13.46,13.46,0,0,1-.89-2.16.32.32,0,0,0-.31-.2A2.3,2.3,0,0,1,17,37.37V34.63a2.3,2.3,0,0,1,2.29-2.3.32.32,0,0,0,.31-.2A13.46,13.46,0,0,1,20.49,30a.31.31,0,0,0-.07-.36,2.31,2.31,0,0,1,0-3.25l1.94-1.94a2.32,2.32,0,0,1,3.23,0,.31.31,0,0,0,.36.07,12.61,12.61,0,0,1,2.19-.9.28.28,0,0,0,.17-.27A2.3,2.3,0,0,1,30.63,21h2.74a2.3,2.3,0,0,1,2.3,2.29.31.31,0,0,0,.2.31,13.09,13.09,0,0,1,2.16.89.31.31,0,0,0,.36-.07,2.29,2.29,0,0,1,3.22,0l1.95,1.94a2.31,2.31,0,0,1,0,3.25.31.31,0,0,0-.07.36,13.46,13.46,0,0,1,.89,2.16.32.32,0,0,0,.31.2A2.3,2.3,0,0,1,47,34.63v2.74a2.3,2.3,0,0,1-2.29,2.3.3.3,0,0,0-.3.17,13.09,13.09,0,0,1-.9,2.19.31.31,0,0,0,.07.36,2.31,2.31,0,0,1,0,3.25l-1.94,1.94a2.32,2.32,0,0,1-3.23,0,.31.31,0,0,0-.36-.07,13.089,13.089,0,0,1-2.16.89.31.31,0,0,0-.2.31A2.3,2.3,0,0,1,33.37,51Zm-7.53-5.53a2.23,2.23,0,0,1,1.06.27,11.17,11.17,0,0,0,1.83.75,2.3,2.3,0,0,1,1.6,2.22.29.29,0,0,0,.3.29h2.74a.29.29,0,0,0,.3-.29,2.3,2.3,0,0,1,1.6-2.22,11.17,11.17,0,0,0,1.83-.75,2.28,2.28,0,0,1,2.68.4.28.28,0,0,0,.41,0l1.94-1.94a.28.28,0,0,0,0-.41,2.31,2.31,0,0,1-.42-2.71,11.07,11.07,0,0,0,.76-1.85,2.25,2.25,0,0,1,2.18-1.58.3.3,0,0,0,.32-.3V34.63a.29.29,0,0,0-.29-.3,2.3,2.3,0,0,1-2.22-1.6,11.17,11.17,0,0,0-.75-1.83,2.3,2.3,0,0,1,.42-2.7.29.29,0,0,0,0-.42l-1.94-1.94a.28.28,0,0,0-.41,0,2.28,2.28,0,0,1-2.68.4,11.17,11.17,0,0,0-1.83-.75,2.3,2.3,0,0,1-1.6-2.22.29.29,0,0,0-.3-.29H30.63a.29.29,0,0,0-.3.29,2.26,2.26,0,0,1-1.58,2.21,10.92,10.92,0,0,0-1.85.76,2.29,2.29,0,0,1-2.68-.4.28.28,0,0,0-.41,0l-1.94,1.94a.28.28,0,0,0,0,.41,2.31,2.31,0,0,1,.42,2.71,11.17,11.17,0,0,0-.75,1.83,2.3,2.3,0,0,1-2.22,1.6.29.29,0,0,0-.29.3v2.74a.29.29,0,0,0,.29.3,2.3,2.3,0,0,1,2.22,1.6,11.17,11.17,0,0,0,.75,1.83,2.3,2.3,0,0,1-.42,2.7.29.29,0,0,0,0,.42l1.94,1.94a.28.28,0,0,0,.41,0,2.31,2.31,0,0,1,1.62-.69Z"/>
      <circle id="Ellipse_11548" data-name="Ellipse 11548" cx="8" cy="8" r="8" transform="translate(24 28)" fill="#fff"/>
      <path id="Path_904919" data-name="Path 904919" d="M32,45a9,9,0,1,1,9-9A9,9,0,0,1,32,45Zm0-16a7,7,0,1,0,7,7,7,7,0,0,0-7-7Z"/>
      <path id="Path_904920" data-name="Path 904920" d="M3,48H15V60H3Z" fill="#36d9c5"/>
      <circle id="Ellipse_11549" data-name="Ellipse 11549" cx="7" cy="7" r="7" transform="translate(47 47)" fill="#d96d71"/>
      <path id="Path_904921" data-name="Path 904921" d="M24,17H40L32,3Z" fill="#ffe66d"/>
      <path id="Path_904922" data-name="Path 904922" d="M15,61H3a1,1,0,0,1-1-1V48a1,1,0,0,1,1-1H15a1,1,0,0,1,1,1V60A1,1,0,0,1,15,61ZM4,59H14V49H4Z"/>
      <path id="Path_904923" data-name="Path 904923" d="M54,62a8,8,0,1,1,8-8A8,8,0,0,1,54,62Zm0-14a6,6,0,1,0,6,6A6,6,0,0,0,54,48Z"/>
      <path id="Path_904924" data-name="Path 904924" d="M40,18H24a1,1,0,0,1-.87-1.5l8-14a1,1,0,0,1,1.74,0l8,14A1,1,0,0,1,40,18ZM25.72,16H38.28L32,5Z"/>
      <path id="Path_904925" data-name="Path 904925" d="M20.59,59.58c-.7-.32-1.4-.66-2.07-1l1-1.76c.63.35,1.27.67,1.93,1Z"/>
      <path id="Path_904926" data-name="Path 904926" d="M32,62a28.1,28.1,0,0,1-9.33-1.59l.66-1.89a26.09,26.09,0,0,0,19.26-.77l.82,1.83A27.76,27.76,0,0,1,32,62Z"/>
      <path id="Path_904927" data-name="Path 904927" d="M58.41,43.33l-1.89-.66c.22-.63.42-1.28.6-1.93l1.93.52C58.86,42,58.65,42.65,58.41,43.33Z"/>
      <path id="Path_904928" data-name="Path 904928" d="M59.52,39.18l-2-.36A26.761,26.761,0,0,0,58,34,26,26,0,0,0,38.74,8.88L39.26,7A28,28,0,0,1,59.52,39.18Z"/>
      <path id="Path_904929" data-name="Path 904929" d="M23.33,9.48l-.66-1.89c.68-.24,1.38-.45,2.07-.64l.52,1.93c-.65.18-1.26.38-1.93.6Z"/>
      <path id="Path_904930" data-name="Path 904930" d="M6.07,44.6A28.05,28.05,0,0,1,20.59,8.42l.82,1.83A26,26,0,0,0,7.93,43.84Z"/>
    </g>
  </g>
</svg>
