<svg xmlns="http://www.w3.org/2000/svg" xmlns:xlink="http://www.w3.org/1999/xlink" width="108" height="108" viewBox="0 0 108 108">
  <defs>
    <filter id="Ellipse_11495" x="0" y="0" width="108" height="108" filterUnits="userSpaceOnUse">
      <feOffset dy="3" input="SourceAlpha"/>
      <feGaussianBlur stdDeviation="3" result="blur"/>
      <feFlood flood-opacity="0.161"/>
      <feComposite operator="in" in2="blur"/>
      <feComposite in="SourceGraphic"/>
    </filter>
  </defs>
  <g id="Group_1143452" data-name="Group 1143452" transform="translate(-197 -467)">
    <g transform="matrix(1, 0, 0, 1, 197, 467)" filter="url(#Ellipse_11495)">
      <g id="Ellipse_11495-2" data-name="Ellipse 11495" transform="translate(9 6)" fill="#ecf4fa" stroke="#7b277e" stroke-width="3">
        <circle cx="45" cy="45" r="45" stroke="none"/>
        <circle cx="45" cy="45" r="43.5" fill="none"/>
      </g>
    </g>
    <g id="Page-1" transform="translate(211.883 484.765)">
      <g id="_008---Mathematics-Book" data-name="008---Mathematics-Book" transform="translate(0 -0.062)">
        <path id="Shape" d="M56.437,24.845,47.2,34.572,45.08,36.8,37.3,45H32.51L22.6,34.572,13.46,24.95c1.513-1.082,6-4.6,15.556-5.7a1.338,1.338,0,0,1,1.317.717l4.694,9.388,4.694-9.388a1.338,1.338,0,0,1,1.317-.717c9.258,1.082,13.769,4.459,15.4,5.594Z" transform="translate(4.091 5.912)" fill="#ffeb3a"/>
        <path id="Shape-2" data-name="Shape" d="M36.394,19.251a1.337,1.337,0,0,0-1.107.426,29.42,29.42,0,0,1,12.594,5.167L38.65,34.572,36.524,36.8,28.74,45h3.912l7.784-8.2,2.125-2.23,9.232-9.727c-1.63-1.134-6.141-4.512-15.4-5.594Z" transform="translate(8.734 5.912)" fill="#fdd834"/>
        <path id="Shape-3" data-name="Shape" d="M42.108,23.123a1.3,1.3,0,0,0-1.733.63L32.429,40.779,24.483,23.752a1.3,1.3,0,0,0-2.363,1.1l9.127,19.559a1.364,1.364,0,0,0,1.181.752,1.347,1.347,0,0,0,1.174-.751L42.73,24.857a1.3,1.3,0,0,0-.622-1.734Z" transform="translate(6.688 7.053)" fill="#ffdc00"/>
        <path id="Shape-4" data-name="Shape" d="M30.624,59.647,28.3,61.733a2.608,2.608,0,0,1-1.747.665H8.94a2.608,2.608,0,0,1-1.747-4.551l10.77-9.7a1.312,1.312,0,0,1,1.734,0l.939.821,9.036,7.915.939.821a1.292,1.292,0,0,1,.013,1.943Z" transform="translate(1.922 14.595)" fill="#9d27b0"/>
        <path id="Shape-5" data-name="Shape" d="M28.148,57.7l-.939-.821-9.036-7.915-.939-.821a1.312,1.312,0,0,0-1.734,0l-1.073.966,8.867,7.77.939.821a1.292,1.292,0,0,1,.013,1.943l-2.321,2.086a2.608,2.608,0,0,1-1.747.665h3.912a2.608,2.608,0,0,0,1.747-.665l2.321-2.086a1.292,1.292,0,0,0-.009-1.943Z" transform="translate(4.385 14.595)" fill="#6a1b9a"/>
        <path id="Shape-6" data-name="Shape" d="M63.2,27.82l-5.555,5.855-.209.222-5.307,5.581V38.238a3.26,3.26,0,1,0-6.52,0v8.11c-2.256,2.373-3.286,3.9-5.92,4.212-.5.091-.026.065-6,.065a6.164,6.164,0,0,1-4.225-1.8l-9.91-10.418-4.485-4.733-5.411-5.7a3.26,3.26,0,1,1,4.72-4.485l.535.561,9.14,9.623,9.91,10.431h4.785l7.784-8.2,2.125-2.23L57.9,23.947l.587-.613A3.26,3.26,0,1,1,63.2,27.82Z" transform="translate(2.63 6.81)" fill="sienna"/>
        <path id="Shape-7" data-name="Shape" d="M40.724,32.458l-.313.329-4.837,5.1V43.23c-2.256,2.373-3.286,3.9-5.92,4.212a3.3,3.3,0,0,1-.832.065,28.99,28.99,0,0,0,4.744-.065c2.634-.313,3.664-1.839,5.92-4.212V35.121A3.182,3.182,0,0,1,40.8,32.513.887.887,0,0,1,40.724,32.458Z" transform="translate(8.759 9.927)" fill="#783e22"/>
        <path id="Shape-8" data-name="Shape" d="M53.43,23.512a3.26,3.26,0,0,0-4.493-.554,3.282,3.282,0,0,1,.582.554,3.24,3.24,0,0,1-.183,4.277l-5.555,5.855-.209.222-2.155,2.266a3.251,3.251,0,0,1,.76,2.076v1.239l5.307-5.581.209-.222,5.555-5.855a3.24,3.24,0,0,0,.183-4.277Z" transform="translate(12.587 6.841)" fill="#783e22"/>
        <path id="Shape-9" data-name="Shape" d="M50.267,35.26v8.984a3.193,3.193,0,0,1-.587,2.021c-.756,1.121-2.308,2.608-5.242,6.832a11.665,11.665,0,0,1-9.584,4.981H32.4A3.955,3.955,0,0,0,29.652,59.2L27.1,61.69l-9.036-7.915,1.995-1.995a2.59,2.59,0,0,0,0-3.69L16.17,43.879a5.225,5.225,0,0,1,.378-7.432L17.7,35.429l9.91,10.418a6.164,6.164,0,0,0,4.225,1.8c5.972,0,5.5.026,6-.065,2.634-.313,3.664-1.839,5.92-4.212V35.26a3.26,3.26,0,1,1,6.52,0Z" transform="translate(4.497 9.788)" fill="#ffe0b2"/>
        <path id="Shape-10" data-name="Shape" d="M46.929,32.953a3.241,3.241,0,0,0-4.256-.3,3.629,3.629,0,0,1,.344.3,3.26,3.26,0,0,1,.952,2.308v8.984a3.193,3.193,0,0,1-.587,2.021c-.756,1.121-2.308,2.608-5.242,6.832a11.665,11.665,0,0,1-9.584,4.981H26.105A3.955,3.955,0,0,0,23.354,59.2l-.7.686,2.06,1.8,2.556-2.49a3.955,3.955,0,0,1,2.751-1.121h2.451A11.665,11.665,0,0,0,42.052,53.1c2.934-4.225,4.485-5.711,5.242-6.832a3.193,3.193,0,0,0,.587-2.021V35.26a3.26,3.26,0,0,0-.952-2.308Z" transform="translate(6.884 9.787)" fill="#dfc49c"/>
        <path id="Shape-11" data-name="Shape" d="M50.012,37.468,41.55,46.517a3.193,3.193,0,0,0,.587-2.021V36.751l5.307-5.581a3.643,3.643,0,0,1,2.464,1.056,3.744,3.744,0,0,1,.1,5.242Z" transform="translate(12.627 9.536)" fill="#ffe0b2"/>
        <path id="Shape-12" data-name="Shape" d="M49.908,32.226a3.643,3.643,0,0,0-2.464-1.056l-1.24,1.3a3.732,3.732,0,0,1-.1,4.994l-3.964,4.239V44.5a3.193,3.193,0,0,1-.587,2.021l8.462-9.049A3.744,3.744,0,0,0,49.908,32.226Z" transform="translate(12.627 9.536)" fill="#dfc49c"/>
        <g id="Group_1143451" data-name="Group 1143451">
          <ellipse id="Oval" cx="1.5" cy="1" rx="1.5" ry="1" transform="translate(49.296 0.297)"/>
          <circle id="Oval-2" data-name="Oval" cx="1.5" cy="1.5" r="1.5" transform="translate(49.296 12.297)"/>
          <path id="Shape-13" data-name="Shape" d="M19.456,53.612a1.3,1.3,0,0,0-1.844,1.844l2.3,2.3a1.3,1.3,0,0,0,1.844-1.844Z" transform="translate(5.241 16.245)"/>
          <path id="Shape-14" data-name="Shape" d="M31.34,18.264c-8.461.967-13.112,3.781-15.275,5.294a4.547,4.547,0,0,0-6.332,6.52L18.7,39.53l-.137.123a6.529,6.529,0,0,0-.473,9.292L22.018,53.2a1.278,1.278,0,0,1,.391.913,1.3,1.3,0,0,1-.391.932l-1.132,1.132-.01-.008a2.623,2.623,0,0,0-3.476,0l-10.778,9.7A3.912,3.912,0,0,0,9.244,72.69H26.859a3.937,3.937,0,0,0,2.62-1L31.8,69.6a2.574,2.574,0,0,0,.089-3.781l1.565-1.518a2.631,2.631,0,0,1,1.84-.743h2.445a12.962,12.962,0,0,0,10.65-5.542,75.254,75.254,0,0,1,4.784-6.194,5.329,5.329,0,0,0,.4-.562l8.4-8.981a4.982,4.982,0,0,0-1.145-7.806l4.325-4.555a4.549,4.549,0,0,0-6.389-6.467,32.715,32.715,0,0,0-15.1-5.195A2.608,2.608,0,0,0,41.029,19.7l-3.53,7.05L33.979,19.7a2.623,2.623,0,0,0-2.639-1.432ZM11.454,25.787a2,2,0,0,1,3-.194L34.037,46.206a1.3,1.3,0,0,0,.945.406h4.785a1.3,1.3,0,0,0,.947-.407l4.608-4.852v5.676l-1.965,2.06a4.747,4.747,0,0,1-2.876,1.386,2.5,2.5,0,0,1-.439.048H34.709a3.092,3.092,0,0,1-.512-.056A4.62,4.62,0,0,1,31.43,49.13L21.52,38.71l-9.9-10.431a1.956,1.956,0,0,1-.17-2.492ZM30.067,67.661l-2.316,2.086a1.3,1.3,0,0,1-.892.335H9.244A1.3,1.3,0,0,1,8.369,67.8l10.773-9.689.938.821,9.036,7.913.941.806Zm16.18-11.128a10.354,10.354,0,0,1-8.513,4.422H35.289a5.226,5.226,0,0,0-3.668,1.492l-1.7,1.649-2.746-2.4-4.335-3.8,1.009-1.011A3.9,3.9,0,0,0,25.009,54.1a3.824,3.824,0,0,0-1.119-2.712l-3.883-4.208a3.921,3.921,0,0,1,.282-5.577l.206-.181,9.052,9.518a7.182,7.182,0,0,0,4.269,2.11,5.148,5.148,0,0,0,.893.082h5.333a4.655,4.655,0,0,0,.818-.074A7.323,7.323,0,0,0,45.238,50.9l2.334-2.453a1.3,1.3,0,0,0,.359-.9V39.44a1.969,1.969,0,0,1,.571-1.386,2.038,2.038,0,0,1,2.771,0,1.973,1.973,0,0,1,.57,1.386v8.985a2.621,2.621,0,0,1-.652,1.7,77.894,77.894,0,0,0-4.948,6.4Zm13.761-19.44a2.45,2.45,0,0,1,.061,3.416l-5.62,6V41.2l4.482-4.719A2.36,2.36,0,0,1,60.009,37.093Zm1.93-12.257a1.945,1.945,0,0,1,1.333,3.29l-9.146,9.631a4.539,4.539,0,0,0-1.008-1.544,4.315,4.315,0,0,0-1.9-1.068l9.219-9.706a1.915,1.915,0,0,1,1.5-.6ZM37.5,30.965a1.3,1.3,0,0,0,1.167-.721l4.694-9.388a30.655,30.655,0,0,1,13.55,4.508L39.209,44H35.543L17.917,25.452A29.93,29.93,0,0,1,31.641,20.86l4.694,9.388a1.3,1.3,0,0,0,1.164.717Z" transform="translate(1.618 5.607)"/>
          <path id="Shape-15" data-name="Shape" d="M18.3,9.127H23.52v5.216a1.3,1.3,0,1,0,2.608,0V9.127h5.216a1.3,1.3,0,1,0,0-2.608H26.127V1.3a1.3,1.3,0,0,0-2.608,0V6.52H18.3a1.3,1.3,0,0,0,0,2.608Z" transform="translate(5.167 0.063)"/>
          <path id="Shape-16" data-name="Shape" d="M34.3,7.608H47.343a1.3,1.3,0,0,0,0-2.608H34.3a1.3,1.3,0,0,0,0,2.608Z" transform="translate(10.029 1.583)"/>
          <path id="Shape-17" data-name="Shape" d="M63.262,6.308a1.3,1.3,0,0,0-1.845,0l-5.594,5.641L50.23,6.315a1.3,1.3,0,0,0-1.852,1.837L53.985,13.8l-5.607,5.654a1.3,1.3,0,0,0,1.852,1.838l5.594-5.641,5.594,5.628a1.3,1.3,0,1,0,1.852-1.839l-5.607-5.647,5.607-5.647a1.3,1.3,0,0,0-.007-1.837Z" transform="translate(14.587 1.864)"/>
          <path id="Shape-18" data-name="Shape" d="M.1,20.842a1.3,1.3,0,0,0,1.2.8H14.343a1.3,1.3,0,1,0,0-2.608H4.452l4.294-4.294a1.3,1.3,0,0,0,0-1.844L4.452,8.608h9.891a1.3,1.3,0,1,0,0-2.608H1.3A1.3,1.3,0,0,0,.382,8.226l5.6,5.6-5.6,5.6A1.3,1.3,0,0,0,.1,20.842Z" transform="translate(0 1.886)"/>
        </g>
      </g>
    </g>
  </g>
</svg>
