<svg xmlns="http://www.w3.org/2000/svg" xmlns:xlink="http://www.w3.org/1999/xlink" width="108" height="108" viewBox="0 0 108 108">
  <defs>
    <filter id="Ellipse_11513" x="0" y="0" width="108" height="108" filterUnits="userSpaceOnUse">
      <feOffset dy="3" input="SourceAlpha"/>
      <feGaussianBlur stdDeviation="3" result="blur"/>
      <feFlood flood-opacity="0.161"/>
      <feComposite operator="in" in2="blur"/>
      <feComposite in="SourceGraphic"/>
    </filter>
  </defs>
  <g id="Group_1143500" data-name="Group 1143500" transform="translate(-1166 -564)">
    <g id="Group_1143499" data-name="Group 1143499" transform="translate(979 -593)">
      <g transform="matrix(1, 0, 0, 1, 187, 1157)" filter="url(#Ellipse_11513)">
        <g id="Ellipse_11513-2" data-name="Ellipse 11513" transform="translate(9 6)" fill="#fce8a6" stroke="#f8c624" stroke-width="3">
          <circle cx="45" cy="45" r="45" stroke="none"/>
          <circle cx="45" cy="45" r="43.5" fill="none"/>
        </g>
      </g>
    </g>
    <g id="Page-1" transform="translate(1187.017 578.381)">
      <g id="_016---Mental-Maths" data-name="016---Mental-Maths" transform="translate(-0.004 0.027)">
        <g id="colour" transform="translate(1.201 1.162)">
          <path id="Shape" d="M57.333,68.238c.537,1.135,1.83,2.441,2.172,3.539H28.741s-1.83-7.5-6-9.4A102.774,102.774,0,0,1,12.121,65.59a3.307,3.307,0,0,1-3.9-2.441c-1.049-3,.39-3.819-.061-5.613-.317-1.22-1.5-1.55-2.441-2.209s.6-2.245.6-2.245S4.885,52.02,4.36,51.556s.22-1.22.891-2.636a3.3,3.3,0,0,0,.232-1.965c-.244-1.318-2.233-1.806-3.209-2.538-1.513-1.135-1.965-1.623.11-4.173A47.884,47.884,0,0,0,7.8,31.4a2.441,2.441,0,0,0,.378-1.11c0-1.745-2.55-2.441-2.782-4.161-.183-1.318,1.513-3.722,2.062-6.1a32.313,32.313,0,0,1,1.22-4.259,21.855,21.855,0,0,1,4.527-7.517c2.99-3.173,7.126-4.539,11.324-5.516,15.388-3.539,23.088-1.6,31.837,5.284a18.89,18.89,0,0,1,6.87,9.872,35.485,35.485,0,0,1,1.22,9.958c-.134,8.957-5.833,12.093-8.371,17.889a22.1,22.1,0,0,0-1.684,11.4,34.449,34.449,0,0,0,2.929,11.1Z" transform="translate(-0.98 -0.975)" fill="#fddead"/>
          <path id="Shape-2" data-name="Shape" d="M48.133,57.138a22.1,22.1,0,0,1,1.684-11.361c2.538-5.723,8.237-8.92,8.371-17.926a35.486,35.486,0,0,0-1.22-10.006,18.89,18.89,0,0,0-6.858-9.872C43.776,2.994,37.98.651,29.45,1.017c6.614.366,11.617,2.721,17,6.956a18.89,18.89,0,0,1,6.858,9.921,35.486,35.486,0,0,1,1.22,9.958c-.134,8.957-5.833,12.093-8.371,17.889a22.1,22.1,0,0,0-1.684,11.4A34.448,34.448,0,0,0,47.4,68.23c.537,1.135,1.83,2.441,2.172,3.539h3.661c-.342-1.147-1.635-2.441-2.172-3.539A34.449,34.449,0,0,1,48.133,57.138Z" transform="translate(5.291 -0.98)" fill="#ddc298"/>
          <path id="Shape-3" data-name="Shape" d="M42.727,38.961a3.819,3.819,0,0,0,3.466,3.868,3.661,3.661,0,0,0,3.856-3.661V35.69a14.973,14.973,0,0,1,2.624-8.725,11.568,11.568,0,0,0,2.258-6.712C54.93,11.834,45.095,5,32.965,5S11,11.834,11,20.254s9.835,15.254,21.965,15.254h7.322a2.441,2.441,0,0,1,2.441,2.441Z" transform="translate(1.227 -0.094)" fill="#f4f4f4"/>
          <path id="Shape-4" data-name="Shape" d="M29.33,5H27.5c11.275.708,20.135,7.322,20.135,15.254a11.568,11.568,0,0,1-2.258,6.712,14.973,14.973,0,0,0-2.624,8.725v3.478a3.661,3.661,0,0,1-1.794,3.148,3.588,3.588,0,0,0,1.6.513,3.661,3.661,0,0,0,3.856-3.661V35.69a14.973,14.973,0,0,1,2.624-8.725A11.568,11.568,0,0,0,51.3,20.254C51.3,11.834,41.46,5,29.33,5Z" transform="translate(4.862 -0.094)" fill="#ced7db"/>
        </g>
        <g id="outline">
          <path id="Shape-5" data-name="Shape" d="M2.673,39.69C1.55,41.081.879,42.13,1.013,43.29a3.661,3.661,0,0,0,1.782,2.319,7.688,7.688,0,0,0,1.22.744c.525.268,1.4.72,1.464,1.037a2.2,2.2,0,0,1-.134,1.22c-.183.378-.378.708-.537,1-.476.842-1.22,2.111,0,3.063.256.232.708.586,1.123.9a3.124,3.124,0,0,0-.39,1.769,1.757,1.757,0,0,0,.72,1.22,8.749,8.749,0,0,0,.842.525c.72.415,1,.6,1.1.976a2.66,2.66,0,0,1-.122,1.355,6.98,6.98,0,0,0,.244,4.344A4.515,4.515,0,0,0,13.631,67a99.746,99.746,0,0,0,10.275-3.087c2.733,1.623,4.454,6.529,4.881,8.371a1.22,1.22,0,0,0,1.22.927H60.795a1.22,1.22,0,0,0,1.159-1.574A8.542,8.542,0,0,0,60.587,69.2a8.323,8.323,0,0,1-.879-1.342,33.29,33.29,0,0,1-2.807-10.7,20.745,20.745,0,0,1,1.586-10.726,27.615,27.615,0,0,1,3.222-5.113c2.441-3.258,5.15-6.956,5.247-13.24A36.682,36.682,0,0,0,65.737,17.7,20.232,20.232,0,0,0,58.354,7.316c-9.616-7.566-17.9-8.945-32.826-5.5-4.051.927-8.64,2.355-11.947,5.857A23.088,23.088,0,0,0,8.7,15.65a32.106,32.106,0,0,0-1.11,3.99l-.1.427a16.01,16.01,0,0,1-1.074,2.855,7.224,7.224,0,0,0-1,3.661,4.7,4.7,0,0,0,1.757,2.7c.6.549.988.927,1,1.281a2.014,2.014,0,0,1-.22.525,47.127,47.127,0,0,1-5.284,8.6Zm6.1-12.2c-.488-.452-.952-.879-1-1.22a7.859,7.859,0,0,1,.805-2.331A18,18,0,0,0,9.8,20.629l.1-.427a29.934,29.934,0,0,1,1.013-3.661A20.965,20.965,0,0,1,15.278,9.39C18.134,6.376,22.124,5.131,26,4.241,38.549,1.214,46.737,1.214,56.829,9.195a17.511,17.511,0,0,1,6.406,9.238,34.4,34.4,0,0,1,1.22,9.628C64.37,33.564,62.1,36.6,59.7,39.885a28.775,28.775,0,0,0-3.5,5.6,23.076,23.076,0,0,0-1.782,11.983A35.571,35.571,0,0,0,57.451,68.94a10.774,10.774,0,0,0,1.1,1.721v.073H30.873a19.293,19.293,0,0,0-4.247-7.761l.927-.329,1.928-.659c5.211-1.647,7.822-4.027,7.761-7.065a1.22,1.22,0,0,0-2.441,0c0,1.22-1,3.1-6.1,4.686-.354.11-1.062.366-1.989.7l-3.148,1.086a101.139,101.139,0,0,1-10.47,3.283,2.172,2.172,0,0,1-2.514-1.635,4.552,4.552,0,0,1-.122-2.99,4.881,4.881,0,0,0,.1-2.538,4.039,4.039,0,0,0-2.233-2.6l-.268-.159a4.307,4.307,0,0,1,.476-.757,1.22,1.22,0,0,0-.207-1.684c-.293-.22-.988-.732-1.489-1.135a3.356,3.356,0,0,1,.207-.354c.183-.329.39-.72.6-1.147a4.43,4.43,0,0,0,.329-2.733c-.281-1.5-1.708-2.221-2.746-2.758a7.322,7.322,0,0,1-.927-.525A5.7,5.7,0,0,1,3.441,43c0-.061,0-.452,1.135-1.769a49.251,49.251,0,0,0,5.552-9.067,3.563,3.563,0,0,0,.488-1.647A4.3,4.3,0,0,0,8.823,27.45Z" transform="translate(-0.996 -0.027)"/>
          <path id="Shape-6" data-name="Shape" d="M34.185,36.948h7.322a1.22,1.22,0,0,1,1.22,1.22v1.013a4.991,4.991,0,0,0,4.625,5.089h.256a4.881,4.881,0,0,0,4.881-4.881V35.91a13.692,13.692,0,0,1,2.441-7.993,12.679,12.679,0,0,0,2.441-7.444C57.371,11.395,46.974,4,34.185,4S11,11.395,11,20.474,21.4,36.948,34.185,36.948Zm0-30.507c11.434,0,20.745,6.3,20.745,14.033A10.25,10.25,0,0,1,52.892,26.5a16.132,16.132,0,0,0-2.843,9.408v3.478a2.441,2.441,0,0,1-.757,1.769,2.538,2.538,0,0,1-1.818.671,2.6,2.6,0,0,1-2.306-2.648V38.168a3.661,3.661,0,0,0-3.661-3.661H34.185c-11.434,0-20.745-6.3-20.745-14.033S22.751,6.441,34.185,6.441Z" transform="translate(1.208 0.848)"/>
          <path id="Shape-7" data-name="Shape" d="M19.355,21.969a1.22,1.22,0,0,0,1.733,0l1.574-1.586,1.574,1.586a1.225,1.225,0,1,0,1.733-1.733l-1.586-1.574,1.586-1.574a1.225,1.225,0,0,0-1.733-1.733l-1.574,1.586-1.574-1.586a1.225,1.225,0,0,0-1.733,1.733l1.586,1.574-1.586,1.574a1.22,1.22,0,0,0,0,1.733Z" transform="translate(2.969 3.27)"/>
          <path id="Shape-8" data-name="Shape" d="M28.22,21.441H33.1A1.22,1.22,0,0,0,33.1,19H28.22a1.22,1.22,0,1,0,0,2.441Z" transform="translate(4.732 4.152)"/>
          <path id="Shape-9" data-name="Shape" d="M28.22,17.441H33.1A1.22,1.22,0,0,0,33.1,15H28.22a1.22,1.22,0,1,0,0,2.441Z" transform="translate(4.732 3.271)"/>
          <path id="Shape-10" data-name="Shape" d="M38.6,22.763a1.22,1.22,0,0,1-1.062-.61,1.219,1.219,0,1,0-2.111,1.22A3.657,3.657,0,1,0,41.311,19.1a3.655,3.655,0,1,0-5.882-4.271,1.219,1.219,0,1,0,2.111,1.22,1.22,1.22,0,1,1,1.062,1.83,1.22,1.22,0,0,0,0,2.441,1.22,1.22,0,1,1,0,2.441Z" transform="translate(6.553 2.829)"/>
        </g>
      </g>
    </g>
  </g>
</svg>
