<svg xmlns="http://www.w3.org/2000/svg" xmlns:xlink="http://www.w3.org/1999/xlink" width="108" height="108" viewBox="0 0 108 108">
  <defs>
    <filter id="Ellipse_11513" x="0" y="0" width="108" height="108" filterUnits="userSpaceOnUse">
      <feOffset dy="3" input="SourceAlpha"/>
      <feGaussianBlur stdDeviation="3" result="blur"/>
      <feFlood flood-opacity="0.161"/>
      <feComposite operator="in" in2="blur"/>
      <feComposite in="SourceGraphic"/>
    </filter>
  </defs>
  <g id="Group_1143496" data-name="Group 1143496" transform="translate(-746 -564)">
    <g id="Group_1143495" data-name="Group 1143495" transform="translate(559 -593)">
      <g transform="matrix(1, 0, 0, 1, 187, 1157)" filter="url(#Ellipse_11513)">
        <g id="Ellipse_11513-2" data-name="Ellipse 11513" transform="translate(9 6)" fill="#fce8a6" stroke="#f8c624" stroke-width="3">
          <circle cx="45" cy="45" r="45" stroke="none"/>
          <circle cx="45" cy="45" r="43.5" fill="none"/>
        </g>
      </g>
    </g>
    <g id="maths_3655656" transform="translate(763.024 578.024)">
      <g id="Flat_26_" transform="translate(1.085 1.085)">
        <path id="Path_904830" data-name="Path 904830" d="M7.5,473.5H79.28v4.342H7.5Z" transform="translate(-7.5 -406.061)" fill="#f88fa4"/>
        <path id="Path_904831" data-name="Path 904831" d="M88.518,410.877H20.5v-7.236l25.857-3.3a7.236,7.236,0,0,1,8.152,7.178v0a7.236,7.236,0,0,1,8.152-7.178l25.857,3.3Z" transform="translate(-18.619 -343.438)" fill="#fff"/>
        <path id="Path_904832" data-name="Path 904832" d="M54.509,444.483a7.322,7.322,0,0,0-.068-.983H20.5v4.342H88.518V443.5H54.577A7.321,7.321,0,0,0,54.509,444.483Z" transform="translate(-18.619 -380.403)" fill="#e4e8ed"/>
        <g id="Group_1143447" data-name="Group 1143447" transform="translate(42.113 4.342)">
          <path id="Path_904833" data-name="Path 904833" d="M380.671,44.736a2.171,2.171,0,0,1-2.171-2.171V39.671a2.171,2.171,0,1,1,4.342,0v2.894A2.171,2.171,0,0,1,380.671,44.736Z" transform="translate(-366.923 -37.5)" fill="#e9dcc0"/>
          <path id="Path_904834" data-name="Path 904834" d="M350.671,44.736a2.171,2.171,0,0,1-2.171-2.171V39.671a2.171,2.171,0,1,1,4.342,0v2.894A2.171,2.171,0,0,1,350.671,44.736Z" transform="translate(-341.264 -37.5)" fill="#e9dcc0"/>
          <path id="Path_904835" data-name="Path 904835" d="M440.671,44.736a2.171,2.171,0,0,1-2.171-2.171V39.671a2.171,2.171,0,1,1,4.342,0v2.894A2.171,2.171,0,0,1,440.671,44.736Z" transform="translate(-418.239 -37.5)" fill="#e9dcc0"/>
          <path id="Path_904836" data-name="Path 904836" d="M410.671,44.736a2.171,2.171,0,0,1-2.171-2.171V39.671a2.171,2.171,0,1,1,4.342,0v2.894A2.171,2.171,0,0,1,410.671,44.736Z" transform="translate(-392.581 -37.5)" fill="#e9dcc0"/>
          <path id="Path_904837" data-name="Path 904837" d="M440.671,197.5a2.171,2.171,0,0,0-2.171,2.171v2.894a2.171,2.171,0,1,0,4.342,0v-2.894A2.171,2.171,0,0,0,440.671,197.5Z" transform="translate(-418.239 -174.345)" fill="#e9dcc0"/>
          <path id="Path_904838" data-name="Path 904838" d="M360.671,197.5a2.171,2.171,0,0,0-2.171,2.171v2.894a2.171,2.171,0,1,0,4.342,0v-2.894A2.171,2.171,0,0,0,360.671,197.5Z" transform="translate(-349.817 -174.345)" fill="#e9dcc0"/>
          <path id="Path_904839" data-name="Path 904839" d="M330.671,197.5a2.171,2.171,0,0,0-2.171,2.171v2.894a2.171,2.171,0,1,0,4.342,0v-2.894A2.171,2.171,0,0,0,330.671,197.5Z" transform="translate(-324.158 -174.345)" fill="#e9dcc0"/>
          <path id="Path_904840" data-name="Path 904840" d="M300.671,197.5a2.171,2.171,0,0,0-2.171,2.171v2.894a2.171,2.171,0,1,0,4.342,0v-2.894A2.171,2.171,0,0,0,300.671,197.5Z" transform="translate(-298.5 -174.345)" fill="#e9dcc0"/>
          <path id="Path_904841" data-name="Path 904841" d="M330.671,117.5a2.171,2.171,0,0,0-2.171,2.171v2.894a2.171,2.171,0,0,0,4.342,0v-2.894A2.171,2.171,0,0,0,330.671,117.5Z" transform="translate(-324.158 -105.923)" fill="#e9dcc0"/>
          <path id="Path_904842" data-name="Path 904842" d="M300.671,117.5a2.171,2.171,0,0,0-2.171,2.171v2.894a2.171,2.171,0,1,0,4.342,0v-2.894A2.171,2.171,0,0,0,300.671,117.5Z" transform="translate(-298.5 -105.923)" fill="#e9dcc0"/>
          <path id="Path_904843" data-name="Path 904843" d="M440.671,117.5a2.171,2.171,0,0,0-2.171,2.171v2.894a2.171,2.171,0,1,0,4.342,0v-2.894A2.171,2.171,0,0,0,440.671,117.5Z" transform="translate(-418.239 -105.923)" fill="#e9dcc0"/>
          <path id="Path_904844" data-name="Path 904844" d="M410.671,117.5a2.171,2.171,0,0,0-2.171,2.171v2.894a2.171,2.171,0,1,0,4.342,0v-2.894A2.171,2.171,0,0,0,410.671,117.5Z" transform="translate(-392.581 -105.923)" fill="#e9dcc0"/>
          <path id="Path_904845" data-name="Path 904845" d="M380.671,284.736a2.171,2.171,0,0,0,2.171-2.171v-2.894a2.171,2.171,0,0,0-4.342,0v2.894A2.171,2.171,0,0,0,380.671,284.736Z" transform="translate(-366.923 -242.768)" fill="#e9dcc0"/>
          <path id="Path_904846" data-name="Path 904846" d="M300.671,284.736a2.171,2.171,0,0,0,2.171-2.171v-2.894a2.171,2.171,0,1,0-4.342,0v2.894A2.171,2.171,0,0,0,300.671,284.736Z" transform="translate(-298.5 -242.768)" fill="#e9dcc0"/>
          <path id="Path_904847" data-name="Path 904847" d="M410.671,284.736a2.171,2.171,0,0,0,2.171-2.171v-2.894a2.171,2.171,0,1,0-4.342,0v2.894A2.171,2.171,0,0,0,410.671,284.736Z" transform="translate(-392.581 -242.768)" fill="#e9dcc0"/>
          <path id="Path_904848" data-name="Path 904848" d="M440.671,284.736a2.171,2.171,0,0,0,2.171-2.171v-2.894a2.171,2.171,0,1,0-4.342,0v2.894A2.171,2.171,0,0,0,440.671,284.736Z" transform="translate(-418.239 -242.768)" fill="#e9dcc0"/>
        </g>
        <circle id="Ellipse_11544" data-name="Ellipse 11544" cx="7.96" cy="7.96" r="7.96" transform="translate(16.353)" fill="#cbdcfb"/>
        <circle id="Ellipse_11545" data-name="Ellipse 11545" cx="7.96" cy="7.96" r="7.96" transform="translate(0 13.025)" fill="#feef8f"/>
        <circle id="Ellipse_11546" data-name="Ellipse 11546" cx="7.96" cy="7.96" r="7.96" transform="translate(0 39.074)" fill="#feef8f"/>
        <circle id="Ellipse_11547" data-name="Ellipse 11547" cx="7.96" cy="7.96" r="7.96" transform="translate(16.353 26.049)" fill="#cbdcfb"/>
        <path id="Path_904849" data-name="Path 904849" d="M128.46,53.289A7.961,7.961,0,0,1,120.8,47.5a7.96,7.96,0,1,0,15.315,0A7.961,7.961,0,0,1,128.46,53.289Z" transform="translate(-104.147 -41.711)" fill="#94b7f7"/>
        <path id="Path_904850" data-name="Path 904850" d="M15.46,143.289A7.961,7.961,0,0,1,7.8,137.5a7.96,7.96,0,1,0,15.315,0A7.961,7.961,0,0,1,15.46,143.289Z" transform="translate(-7.5 -118.687)" fill="#ffc277"/>
        <path id="Path_904851" data-name="Path 904851" d="M15.46,323.289A7.961,7.961,0,0,1,7.8,317.5a7.96,7.96,0,1,0,15.315,0A7.961,7.961,0,0,1,15.46,323.289Z" transform="translate(-7.5 -272.637)" fill="#ffc277"/>
        <path id="Path_904852" data-name="Path 904852" d="M128.46,233.289A7.961,7.961,0,0,1,120.8,227.5a7.96,7.96,0,1,0,15.315,0A7.961,7.961,0,0,1,128.46,233.289Z" transform="translate(-104.147 -195.662)" fill="#94b7f7"/>
      </g>
      <g id="Group_1143448" data-name="Group 1143448" transform="translate(41.172 63.097)">
        <path id="Path_904853" data-name="Path 904853" d="M284.5,436h2.171v2.171H284.5Z" transform="translate(-284.5 -436)" fill="#fff"/>
        <path id="Path_904854" data-name="Path 904854" d="M314.5,436h2.171v2.171H314.5Z" transform="translate(-310.158 -436)" fill="#fff"/>
      </g>
      <g id="Outline_26_" transform="translate(0)">
        <path id="Path_904855" data-name="Path 904855" d="M2.171,405.547h45.08v-2.171h-9.19V401.1a6.152,6.152,0,0,1,6.137-6.152,6.239,6.239,0,0,1,.792.051l3.388.433.275-2.153-3.388-.433a8.459,8.459,0,0,0-1.068-.068,8.312,8.312,0,0,0-7.223,4.213,8.312,8.312,0,0,0-7.223-4.213,8.426,8.426,0,0,0-1.067.068l-26.8,3.422v7.106H0v6.512H8.466v-2.171h-6.3Zm1.881-7.366L28.961,395a6.27,6.27,0,0,1,.792-.051A6.151,6.151,0,0,1,35.89,401.1v2.274H4.052Z" transform="translate(0 -335.937)"/>
        <path id="Path_904856" data-name="Path 904856" d="M134.933,400.855l-21.263-2.714-.275,2.153,19.367,2.472v5.195H112.285v2.171h22.359V412.3H73.5v2.171h63.314v-6.512h-1.881Z" transform="translate(-62.863 -340.523)"/>
        <path id="Path_904857" data-name="Path 904857" d="M288.923,0H259.98A3.984,3.984,0,0,0,256,3.98V48.843a3.984,3.984,0,0,0,3.98,3.98h28.944a3.984,3.984,0,0,0,3.98-3.98V3.98A3.984,3.984,0,0,0,288.923,0Zm1.809,48.843a1.811,1.811,0,0,1-1.809,1.809H259.98a1.811,1.811,0,0,1-1.809-1.809v-3.98h2.894v.362a3.256,3.256,0,0,0,6.512,0v-.362h5.065v.362a3.254,3.254,0,0,0,5.427,2.424,3.248,3.248,0,0,0,4.342,0,3.254,3.254,0,0,0,5.427-2.424v-.362h2.894Zm-27.5-3.618V42.33a1.085,1.085,0,0,1,2.171,0v2.894a1.085,1.085,0,1,1-2.171,0Zm11.577,0V42.33a1.085,1.085,0,0,1,2.171,0v2.894a1.085,1.085,0,1,1-2.171,0Zm4.342,0V42.33a1.085,1.085,0,0,1,2.171,0v2.894a1.085,1.085,0,0,1-2.171,0Zm4.342,0V42.33a1.085,1.085,0,0,1,2.171,0v2.894a1.085,1.085,0,0,1-2.171,0Zm7.236-2.533h-2.894V42.33a3.254,3.254,0,0,0-5.427-2.424,3.248,3.248,0,0,0-4.342,0,3.254,3.254,0,0,0-5.427,2.424v.362h-5.065V42.33a3.256,3.256,0,0,0-6.512,0v.362h-2.894V33.285h2.894v.362a3.254,3.254,0,0,0,5.427,2.424,3.248,3.248,0,0,0,4.342,0,3.254,3.254,0,0,0,5.427-2.424v-.362h5.065v.362a3.256,3.256,0,1,0,6.512,0v-.362h2.894Zm-27.5-9.045V30.753a1.085,1.085,0,1,1,2.171,0v2.894a1.085,1.085,0,1,1-2.171,0Zm4.342,0V30.753a1.085,1.085,0,1,1,2.171,0v2.894a1.085,1.085,0,1,1-2.171,0Zm4.342,0V30.753a1.085,1.085,0,1,1,2.171,0v2.894a1.085,1.085,0,1,1-2.171,0Zm11.577,0V30.753a1.085,1.085,0,0,1,2.171,0v2.894a1.085,1.085,0,0,1-2.171,0Zm7.236-2.533h-2.894v-.362a3.256,3.256,0,1,0-6.512,0v.362h-5.065v-.362a3.254,3.254,0,0,0-5.427-2.424,3.248,3.248,0,0,0-4.342,0,3.254,3.254,0,0,0-5.427,2.424v.362h-2.894V21.708h2.894v.362a3.254,3.254,0,0,0,5.427,2.424,3.254,3.254,0,0,0,5.427-2.424v-.362h5.065v.362a3.254,3.254,0,0,0,5.427,2.424,3.254,3.254,0,0,0,5.427-2.424v-.362h2.894Zm-27.5-9.045V19.175a1.085,1.085,0,1,1,2.171,0V22.07a1.085,1.085,0,1,1-2.171,0Zm4.342,0V19.175a1.085,1.085,0,1,1,2.171,0V22.07a1.085,1.085,0,1,1-2.171,0Zm11.577,0V19.175a1.085,1.085,0,0,1,2.171,0V22.07a1.085,1.085,0,0,1-2.171,0Zm4.342,0V19.175a1.085,1.085,0,0,1,2.171,0V22.07a1.085,1.085,0,0,1-2.171,0Zm7.236-2.533h-2.894v-.362a3.254,3.254,0,0,0-5.427-2.424,3.254,3.254,0,0,0-5.427,2.424v.362h-5.065v-.362a3.254,3.254,0,0,0-5.427-2.424,3.254,3.254,0,0,0-5.427,2.424v.362h-2.894V10.13H268.3v.362a3.254,3.254,0,0,0,5.427,2.424,3.248,3.248,0,0,0,4.342,0,3.248,3.248,0,0,0,4.342,0,3.254,3.254,0,0,0,5.427-2.424V10.13h2.894Zm-20.261-9.045V7.6a1.085,1.085,0,1,1,2.171,0v2.894a1.085,1.085,0,1,1-2.171,0Zm4.342,0V7.6a1.085,1.085,0,1,1,2.171,0v2.894a1.085,1.085,0,1,1-2.171,0Zm4.342,0V7.6a1.085,1.085,0,0,1,2.171,0v2.894a1.085,1.085,0,0,1-2.171,0Zm4.342,0V7.6a1.085,1.085,0,0,1,2.171,0v2.894a1.085,1.085,0,0,1-2.171,0Zm7.236-2.533h-2.894V7.6a3.254,3.254,0,0,0-5.427-2.424,3.248,3.248,0,0,0-4.342,0,3.248,3.248,0,0,0-4.342,0A3.254,3.254,0,0,0,268.3,7.6V7.96h-10.13V3.98a1.811,1.811,0,0,1,1.809-1.809h28.944a1.811,1.811,0,0,1,1.809,1.809Z" transform="translate(-218.952)"/>
        <path id="Path_904858" data-name="Path 904858" d="M122.045,18.09a9.045,9.045,0,1,0-5.009-16.577l1.2,1.807a6.876,6.876,0,1,1-1.562,1.43l-1.694-1.358a9.045,9.045,0,0,0,7.061,14.7Z" transform="translate(-96.647)"/>
        <path id="Path_904859" data-name="Path 904859" d="M9.045,108.09A9.045,9.045,0,1,0,4.036,91.513l1.2,1.807a6.876,6.876,0,1,1-1.562,1.43L1.984,93.392a9.045,9.045,0,0,0,7.061,14.7Z" transform="translate(0 -76.975)"/>
        <path id="Path_904860" data-name="Path 904860" d="M32.5,145h8.683v2.171H32.5Z" transform="translate(-27.797 -124.016)"/>
        <path id="Path_904861" data-name="Path 904861" d="M9.045,288.09a9.045,9.045,0,1,0-5.009-16.577l1.2,1.807a6.876,6.876,0,1,1-1.562,1.43l-1.694-1.358a9.045,9.045,0,0,0,7.061,14.7Z" transform="translate(0 -230.926)"/>
        <path id="Path_904862" data-name="Path 904862" d="M32.5,325h8.683v2.171H32.5Z" transform="translate(-27.797 -277.966)"/>
        <path id="Path_904863" data-name="Path 904863" d="M55,295h2.171v2.171H55Z" transform="translate(-47.04 -252.308)"/>
        <path id="Path_904864" data-name="Path 904864" d="M55,355h2.171v2.171H55Z" transform="translate(-47.04 -303.625)"/>
        <path id="Path_904865" data-name="Path 904865" d="M148.756,32.5v3.256H145.5v2.171h3.256v3.256h2.171V37.927h3.256V35.756h-3.256V32.5Z" transform="translate(-124.443 -27.797)"/>
        <path id="Path_904866" data-name="Path 904866" d="M114.984,183.392a9.038,9.038,0,1,0,2.052-1.879l1.2,1.807a6.876,6.876,0,1,1-1.562,1.43Z" transform="translate(-96.647 -153.951)"/>
        <path id="Path_904867" data-name="Path 904867" d="M149.732,223.1l2.416-2.416,2.416,2.416,1.535-1.535-2.416-2.416,2.416-2.416-1.535-1.535-2.416,2.416-2.416-2.416-1.535,1.535,2.416,2.416-2.416,2.416Z" transform="translate(-126.75 -184.053)"/>
      </g>
    </g>
  </g>
</svg>
