<svg xmlns="http://www.w3.org/2000/svg" xmlns:xlink="http://www.w3.org/1999/xlink" width="108" height="108" viewBox="0 0 108 108">
  <defs>
    <filter id="Path_904820" x="0" y="0" width="108" height="108" filterUnits="userSpaceOnUse">
      <feOffset dy="3" input="SourceAlpha"/>
      <feGaussianBlur stdDeviation="3" result="blur"/>
      <feFlood flood-opacity="0.161"/>
      <feComposite operator="in" in2="blur"/>
      <feComposite in="SourceGraphic"/>
    </filter>
  </defs>
  <g id="Group_1143524" data-name="Group 1143524" transform="translate(-615.101 -5000)">
    <g transform="matrix(1, 0, 0, 1, 615.1, 5000)" filter="url(#Path_904820)">
      <g id="Path_904820-2" data-name="Path 904820" transform="translate(9 6)" fill="#ecf4fa">
        <path d="M 45 88.5 C 39.12687683105469 88.5 33.43022537231445 87.35007476806641 28.06830024719238 85.08217620849609 C 22.88852500915527 82.89131164550781 18.23629951477051 79.75458526611328 14.2408504486084 75.75914764404297 C 10.24541282653809 71.76370239257812 7.108687400817871 67.11147308349609 4.917825222015381 61.93170166015625 C 2.649924993515015 56.56977462768555 1.5 50.87312316894531 1.5 45 C 1.5 39.12687683105469 2.649924993515015 33.43022537231445 4.917825222015381 28.06830024719238 C 7.108687400817871 22.88852500915527 10.24541282653809 18.23629951477051 14.2408504486084 14.2408504486084 C 18.23629951477051 10.24541282653809 22.88852500915527 7.108687400817871 28.06830024719238 4.917825222015381 C 33.43022537231445 2.649924993515015 39.12687683105469 1.5 45 1.5 C 50.87312316894531 1.5 56.56977462768555 2.649924993515015 61.93170166015625 4.917825222015381 C 67.11147308349609 7.108687400817871 71.76370239257812 10.24541282653809 75.75914764404297 14.2408504486084 C 79.75458526611328 18.23629951477051 82.89131164550781 22.88852500915527 85.08217620849609 28.06830024719238 C 87.35007476806641 33.43022537231445 88.5 39.12687683105469 88.5 45 C 88.5 50.87312316894531 87.35007476806641 56.56977462768555 85.08217620849609 61.93170166015625 C 82.89131164550781 67.11147308349609 79.75458526611328 71.76370239257812 75.75914764404297 75.75914764404297 C 71.76370239257812 79.75458526611328 67.11147308349609 82.89131164550781 61.93170166015625 85.08217620849609 C 56.56977462768555 87.35007476806641 50.87312316894531 88.5 45 88.5 Z" stroke="none"/>
        <path d="M 45 3 C 39.32871246337891 3 33.82865524291992 4.110054016113281 28.65262985229492 6.299339294433594 C 23.65165710449219 8.414573669433594 19.15968322753906 11.44334411621094 15.301513671875 15.301513671875 C 11.44334411621094 19.15968322753906 8.414573669433594 23.65165710449219 6.299339294433594 28.65262985229492 C 4.110054016113281 33.82865524291992 3 39.32871246337891 3 45 C 3 50.67128753662109 4.110054016113281 56.17134475708008 6.299339294433594 61.34737396240234 C 8.414573669433594 66.34834289550781 11.44334411621094 70.84031677246094 15.301513671875 74.698486328125 C 19.15968322753906 78.55665588378906 23.65165710449219 81.58542633056641 28.65262985229492 83.70066070556641 C 33.82865524291992 85.88994598388672 39.32871246337891 87 45 87 C 50.67128753662109 87 56.17134475708008 85.88994598388672 61.34737396240234 83.70066070556641 C 66.34834289550781 81.58542633056641 70.84031677246094 78.55665588378906 74.698486328125 74.698486328125 C 78.55665588378906 70.84031677246094 81.58542633056641 66.34834289550781 83.70066070556641 61.34737396240234 C 85.88994598388672 56.17134475708008 87 50.67128753662109 87 45 C 87 39.32871246337891 85.88994598388672 33.82865524291992 83.70066070556641 28.65262985229492 C 81.58542633056641 23.65165710449219 78.55665588378906 19.15968322753906 74.698486328125 15.301513671875 C 70.84031677246094 11.44334411621094 66.34834289550781 8.414573669433594 61.34737396240234 6.299339294433594 C 56.17134475708008 4.110054016113281 50.67128753662109 3 45 3 M 45 0 C 69.85281372070312 0 90 20.14718627929688 90 45 C 90 69.85281372070312 69.85281372070312 90 45 90 C 20.14718627929688 90 0 69.85281372070312 0 45 C 0 20.14718627929688 20.14718627929688 0 45 0 Z" stroke="none" fill="#2a5673"/>
      </g>
    </g>
    <g id="rethink_4079480" transform="translate(635.993 5015.786)">
      <g id="Group_1143530" data-name="Group 1143530" transform="translate(1.068 1.066)">
        <g id="Group_1143511" data-name="Group 1143511" transform="translate(28.836 53.4)">
          <path id="Path_904894" data-name="Path 904894" d="M32.272,51l2.136,7.476-3.2,3.2-3.2-3.2L30.136,51Z" transform="translate(-28 -50.999)" fill="#ff826e"/>
        </g>
        <g id="Group_1143512" data-name="Group 1143512" transform="translate(32.04 50.666)">
          <path id="Path_904895" data-name="Path 904895" d="M34.2,58.649l-2.136-7.476,4.272,3.2.748-5.938a12.633,12.633,0,0,1,2.98,2.211,12.776,12.776,0,0,1,3.749,9.067v2.136H31Z" transform="translate(-31 -48.439)" fill="#e6e9ed"/>
        </g>
        <g id="Group_1143513" data-name="Group 1143513" transform="translate(19.224 50.666)">
          <path id="Path_904896" data-name="Path 904896" d="M25.408,61.853H19V59.717a12.78,12.78,0,0,1,6.728-11.278l.748,5.938,4.272-3.2-2.136,7.476,3.2,3.2Z" transform="translate(-19 -48.439)" fill="#e6e9ed"/>
        </g>
        <g id="Group_1143514" data-name="Group 1143514" transform="translate(33.108 49.577)">
          <path id="Path_904897" data-name="Path 904897" d="M37.02,48.508l-.748,5.938L32,51.242l2.285-3.813v-.011a12.178,12.178,0,0,1,2.734,1.089Z" transform="translate(-32 -47.419)" fill="#ccd1d9"/>
        </g>
        <g id="Group_1143515" data-name="Group 1143515" transform="translate(25.952 49.577)">
          <path id="Path_904898" data-name="Path 904898" d="M28.034,47.43l2.285,3.813-4.272,3.2L25.3,48.508a12.382,12.382,0,0,1,2.734-1.089Z" transform="translate(-25.3 -47.419)" fill="#ccd1d9"/>
        </g>
        <g id="Group_1143516" data-name="Group 1143516" transform="translate(28.686 49.128)">
          <path id="Path_904899" data-name="Path 904899" d="M27.86,47.458v-.011a12.76,12.76,0,0,1,6.707,0v.011l-2.285,3.813H30.146Z" transform="translate(-27.86 -46.999)" fill="#f0d0b4"/>
        </g>
        <g id="Group_1143517" data-name="Group 1143517" transform="translate(43.788 32.04)">
          <path id="Path_904900" data-name="Path 904900" d="M45.022,31.661a3.207,3.207,0,0,1-1.954,5.746H42V31h1.068a3.241,3.241,0,0,1,1.954.662Z" transform="translate(-42 -30.999)" fill="#f0d0b4"/>
        </g>
        <g id="Group_1143518" data-name="Group 1143518" transform="translate(20.292 27.768)">
          <path id="Path_904901" data-name="Path 904901" d="M22.136,29.135a7.718,7.718,0,0,0,3.962-1.1l.769-.459a3.167,3.167,0,0,0,2.745,1.559h4.272a3.167,3.167,0,0,0,2.745-1.559l.769.459a7.718,7.718,0,0,0,3.962,1.1A2.152,2.152,0,0,0,43.5,27v10.68a10.684,10.684,0,0,1-10.68,10.68H30.68A10.684,10.684,0,0,1,20,37.679V27a2.152,2.152,0,0,0,2.136,2.136Z" transform="translate(-20 -26.999)" fill="#f0d0b4"/>
        </g>
        <g id="Group_1143519" data-name="Group 1143519" transform="translate(16.02 32.04)">
          <path id="Path_904902" data-name="Path 904902" d="M20.272,31v6.408H19.2a3.2,3.2,0,0,1-2.264-5.468,3.828,3.828,0,0,1,.31-.278A3.241,3.241,0,0,1,19.2,31Z" transform="translate(-16 -30.999)" fill="#f0d0b4"/>
        </g>
        <g id="Group_1143520" data-name="Group 1143520" transform="translate(26.7 23.624)">
          <path id="Path_904903" data-name="Path 904903" d="M36.68,26.195a3.2,3.2,0,0,1-.459,1.645A3.167,3.167,0,0,1,33.476,29.4H29.2a3.167,3.167,0,0,1-2.745-1.559,3.179,3.179,0,0,1,1.912-4.721,3.157,3.157,0,0,0,.7,1.068,3.2,3.2,0,0,0,5.233-1.068A3.176,3.176,0,0,1,36.68,26.195Z" transform="translate(-26 -23.119)" fill="#656d78"/>
        </g>
        <g id="Group_1143521" data-name="Group 1143521" transform="translate(35.009 16.02)">
          <path id="Path_904904" data-name="Path 904904" d="M42.559,27.747a2.152,2.152,0,0,1-2.136,2.136,7.718,7.718,0,0,1-3.962-1.1l-.769-.459A3.179,3.179,0,0,0,33.78,23.6a3.184,3.184,0,0,0,.235-1.2V18.359A3.15,3.15,0,0,1,35.051,16h.3A11.475,11.475,0,0,1,45.581,32.681a3.241,3.241,0,0,0-1.954-.662H42.559Z" transform="translate(-33.78 -15.999)" fill="#656d78"/>
        </g>
        <g id="Group_1143522" data-name="Group 1143522" transform="translate(16.02 16.02)">
          <path id="Path_904905" data-name="Path 904905" d="M28.816,19.2v3.2a3.184,3.184,0,0,0,.235,1.2,3.179,3.179,0,0,0-1.912,4.721l-.769.459a7.718,7.718,0,0,1-3.962,1.1,2.152,2.152,0,0,1-2.136-2.136v4.272H19.2a3.241,3.241,0,0,0-1.954.662A11.475,11.475,0,0,1,27.481,16h.31a3.234,3.234,0,0,1,1.025,2.4Z" transform="translate(-16 -15.999)" fill="#656d78"/>
        </g>
        <g id="Group_1143523" data-name="Group 1143523" transform="translate(38.384 2.82)">
          <path id="Path_904906" data-name="Path 904906" d="M60.5,48.879a2.136,2.136,0,1,1,0,4.272H48.752V41.4a2.136,2.136,0,1,1,4.272,0v3.855A25.624,25.624,0,0,0,39.108,8.68,8.5,8.5,0,0,0,36.94,3.639a29.9,29.9,0,0,1,18.9,45.24Z" transform="translate(-36.94 -3.639)" fill="#ff826e"/>
        </g>
        <g id="Group_1143524-2" data-name="Group 1143524" transform="translate(2.136 2.809)">
          <path id="Path_904907" data-name="Path 904907" d="M26.592,3.629a8.36,8.36,0,0,0-2.157,4.614c-.021.15-.032.3-.043.438A25.641,25.641,0,0,0,7.272,32.86a25.375,25.375,0,0,0,1.111,7.476H8.34L7.849,41.82a8.1,8.1,0,0,0-1.25.523l-1.41-.7-.662.662A29.912,29.912,0,0,1,26.592,3.629Z" transform="translate(-3 -3.629)" fill="#ff826e"/>
        </g>
        <g id="Group_1143525" data-name="Group 1143525" transform="translate(0 39.516)">
          <path id="Path_904908" data-name="Path 904908" d="M6.735,40.007a8.1,8.1,0,0,1,1.25-.523L8.476,38h4.272l.491,1.485a8.1,8.1,0,0,1,1.25.523l1.41-.7,3.022,3.022-.7,1.41a8.1,8.1,0,0,1,.523,1.25l1.485.491v4.272l-1.485.491a8.1,8.1,0,0,1-.523,1.25l.7,1.41L15.9,55.92l-1.41-.7a8.105,8.105,0,0,1-1.25.523l-.491,1.485H8.476l-.491-1.485a8.1,8.1,0,0,1-1.25-.523l-1.41.7L2.3,52.9l.7-1.41a8.1,8.1,0,0,1-.523-1.25L1,49.747V45.475l1.485-.491a8.1,8.1,0,0,1,.523-1.25l-.7-1.41,2.36-2.35v-.011l.662-.662Zm8.149,7.6a4.272,4.272,0,1,0-4.272,4.272A4.271,4.271,0,0,0,14.884,47.611Z" transform="translate(-1 -37.999)" fill="#fcd770"/>
        </g>
        <g id="Group_1143526" data-name="Group 1143526" transform="translate(27.768 40.584)">
          <path id="Path_904909" data-name="Path 904909" d="M27,39h8.544A4.272,4.272,0,0,1,27,39Z" transform="translate(-27 -38.999)" fill="#ff826e"/>
        </g>
        <g id="Group_1143527" data-name="Group 1143527" transform="translate(28.836 19.224)">
          <path id="Path_904910" data-name="Path 904910" d="M34.408,19v3.2A3.2,3.2,0,0,1,28,22.2V19h6.408Z" transform="translate(-28 -18.999)" fill="#aab2bd"/>
        </g>
        <g id="Group_1143528" data-name="Group 1143528" transform="translate(23.499)">
          <path id="Path_904911" data-name="Path 904911" d="M31.544,20.223h-3.2v-.8a3.234,3.234,0,0,0-1.025-2.4,2.974,2.974,0,0,0-.363-.278,8.5,8.5,0,0,1-3.92-7.882c.011-.139.021-.288.043-.438a8.36,8.36,0,0,1,2.157-4.614,8.5,8.5,0,0,1,12.645.011h.011a8.5,8.5,0,0,1,2.168,5.041c.021.224.032.449.032.684a8.53,8.53,0,0,1-3.93,7.188,2.485,2.485,0,0,0-.374.288,3.15,3.15,0,0,0-1.036,2.36v.844Z" transform="translate(-23.003 -0.999)" fill="#ffeaa7"/>
        </g>
        <g id="Group_1143529" data-name="Group 1143529" transform="translate(29.723 6.427)">
          <circle id="Ellipse_11547" data-name="Ellipse 11547" cx="2.24" cy="2.24" r="2.24" transform="translate(0 0)" fill="#fcd770"/>
        </g>
      </g>
      <g id="Group_1143531" data-name="Group 1143531" transform="translate(0 -0.001)">
        <path id="Path_904912" data-name="Path 904912" d="M26,39.067a5.34,5.34,0,1,0,10.68,0V38H26Zm8.361,1.068a3.2,3.2,0,0,1-6.043,0Z" transform="translate(1.768 2.584)"/>
        <path id="Path_904913" data-name="Path 904913" d="M28.408,35.271h2.136a4.272,4.272,0,0,0-8.544,0h2.136a2.136,2.136,0,1,1,4.272,0Z" transform="translate(1.496 2.108)"/>
        <path id="Path_904914" data-name="Path 904914" d="M36.272,31A4.276,4.276,0,0,0,32,35.271h2.136a2.136,2.136,0,1,1,4.272,0h2.136A4.276,4.276,0,0,0,36.272,31Z" transform="translate(2.176 2.108)"/>
        <path id="Path_904915" data-name="Path 904915" d="M5,47.339A5.34,5.34,0,1,0,10.34,42,5.346,5.346,0,0,0,5,47.339Zm5.34-3.2a3.2,3.2,0,1,1-3.2,3.2A3.208,3.208,0,0,1,10.34,44.135Z" transform="translate(0.34 2.856)"/>
        <path id="Path_904916" data-name="Path 904916" d="M63.011,48.059H60.229A30.956,30.956,0,0,0,40,2.924c-.159-.164-.315-.331-.487-.484a9.577,9.577,0,0,0-13.282.481,30.917,30.917,0,0,0-22.7,39.322L1.073,44.7l.814,1.627c-.058.129-.111.26-.162.39L0,47.288V53.1l1.724.575c.051.13.106.261.162.39l-.814,1.625L5.182,59.8l1.627-.814c.129.058.26.111.39.162l.575,1.724h5.811l.575-1.724c.13-.051.261-.106.39-.162l1.627.814,4.11-4.111-.814-1.625c.058-.129.111-.26.162-.39L21.36,53.1V47.29l-1.724-.575c-.051-.13-.106-.261-.162-.39l.814-1.627-4.11-4.11-1.627.814c-.129-.058-.26-.111-.39-.162l-.575-1.724H9.406A24.5,24.5,0,0,1,23.559,10.488a9.479,9.479,0,0,0,2.628,5.764,12.486,12.486,0,0,0-9.116,17.283,4.233,4.233,0,0,0-1.051,2.776,4.276,4.276,0,0,0,4.272,4.272h.054a11.77,11.77,0,0,0,7.121,9.753A13.9,13.9,0,0,0,19.224,63.01v3.2H46.992v-3.2a13.9,13.9,0,0,0-8.244-12.675,11.772,11.772,0,0,0,7.121-9.753h.054A4.276,4.276,0,0,0,50.2,36.311a4.228,4.228,0,0,0-1.052-2.776,12.484,12.484,0,0,0-9.1-17.281,9.536,9.536,0,0,0,2.623-5.763,24.538,24.538,0,0,1,13.8,30.219,3.2,3.2,0,0,0-6.267.941V53.4a1.067,1.067,0,0,0,1.068,1.068H63.011a3.2,3.2,0,1,0,0-6.408ZM12.469,42.917l.513.167a7.414,7.414,0,0,1,1.093.457l.482.247,1.2-.6,1.932,1.932-.6,1.2.247.481a7.632,7.632,0,0,1,.457,1.093l.167.513,1.267.424v2.733l-1.267.423-.167.513a7.414,7.414,0,0,1-.457,1.093l-.247.481.6,1.2L15.756,57.2l-1.2-.6-.481.247a7.632,7.632,0,0,1-1.093.457l-.513.167-.423,1.267H9.314l-.423-1.267-.513-.167a7.413,7.413,0,0,1-1.093-.457L6.805,56.6l-1.2.6L3.673,55.27l.6-1.2-.247-.481A7.632,7.632,0,0,1,3.57,52.5L3.4,51.984,2.136,51.56V48.829L3.4,48.406l.167-.513A7.414,7.414,0,0,1,4.026,46.8l.247-.481-.6-1.2L5.6,43.187l1.2.6.481-.247a7.633,7.633,0,0,1,1.093-.457l.513-.167.423-1.267h2.733ZM6.408,33.107A26.681,26.681,0,0,0,7.452,40.48l-.253.758c-.13.051-.261.106-.39.162l-1.524-.761a28.774,28.774,0,0,1,19.079-35,9.287,9.287,0,0,0-.756,2.536,26.726,26.726,0,0,0-17.2,24.933ZM28.4,18.163a2.223,2.223,0,0,1,.436,1.326v4a4.194,4.194,0,0,0,.058.57,4.257,4.257,0,0,0-2.194,3.7,4.2,4.2,0,0,0,.192,1.2,6.633,6.633,0,0,1-3.4.937,1.068,1.068,0,0,1,0-2.136h1.068V25.631H23.5a3.208,3.208,0,0,0-3.2,3.2v3.2a4.223,4.223,0,0,0-1.432.265,10.383,10.383,0,0,1,9.54-14.14Zm6.844,3.2v2.136a2.136,2.136,0,0,1-4.272,0V21.359ZM32.04,9.611a1.068,1.068,0,1,1,1.068,1.068A1.068,1.068,0,0,1,32.04,9.611Zm5.34,18.156A2.138,2.138,0,0,1,35.244,29.9H30.972a2.123,2.123,0,0,1-1.258-3.843,4.228,4.228,0,0,0,6.788,0A2.121,2.121,0,0,1,37.38,27.767ZM18.156,36.311a2.138,2.138,0,0,1,2.136-2.136v4.272A2.138,2.138,0,0,1,18.156,36.311ZM34.774,51.395l-1.2,2h-.926l-1.2-2a10.54,10.54,0,0,1,3.331,0Zm3.262.965-.419,3.351L35.588,54.19l1.362-2.269Q37.505,52.114,38.035,52.36ZM33.108,63.636l-2-2,1.743-6.1h.524l1.743,6.1ZM29.266,51.92l1.362,2.269L28.6,55.712,28.18,52.36Q28.71,52.114,29.266,51.92ZM21.36,63.01a11.728,11.728,0,0,1,4.817-9.463l.76,6.082,3.2-2.4L28.7,62.253l1.825,1.825H27.768V59.806H25.632v4.272H21.36Zm23.5,0v1.068H40.584V59.806H38.448v4.272H35.686l1.825-1.825-1.436-5.027,3.2,2.4.76-6.082A11.728,11.728,0,0,1,44.856,63.01ZM34.176,49.126H32.04a9.622,9.622,0,0,1-9.612-9.612V31.842a3.168,3.168,0,0,0,1.068.2,8.768,8.768,0,0,0,4.48-1.234,4.26,4.26,0,0,0,3,1.234h4.272a4.257,4.257,0,0,0,3-1.232,8.77,8.77,0,0,0,4.48,1.232,3.168,3.168,0,0,0,1.068-.2v7.672A9.622,9.622,0,0,1,34.176,49.126Zm11.748-10.68V34.175a2.136,2.136,0,1,1,0,4.272Zm2.136-9.883a10.465,10.465,0,0,1-.7,3.74,4.223,4.223,0,0,0-1.432-.265v-3.2a3.208,3.208,0,0,0-3.2-3.2H41.652v2.136H42.72a1.068,1.068,0,0,1,0,2.136,6.634,6.634,0,0,1-3.4-.937,4.212,4.212,0,0,0,.192-1.2,4.257,4.257,0,0,0-2.194-3.7,4.194,4.194,0,0,0,.058-.57V19.446a2.105,2.105,0,0,1,.436-1.283A10.416,10.416,0,0,1,48.06,28.563ZM37.146,15.9a4.163,4.163,0,0,0-1.888,3.325H34.176v-6.6a3.2,3.2,0,1,0-2.136,0v6.6H30.956a4.163,4.163,0,0,0-1.868-3.314A7.472,7.472,0,0,1,32.231,2.185a7.746,7.746,0,0,1,.885-.051,7.388,7.388,0,0,1,4.968,1.9A7.471,7.471,0,0,1,37.146,15.9ZM63.011,52.33H52.331V41.651a1.068,1.068,0,0,1,2.136,0v3.859a1.068,1.068,0,0,0,2,.518A26.675,26.675,0,0,0,42.6,8.168a9.634,9.634,0,0,0-.74-2.529,28.821,28.821,0,0,1,15.6,42.915,1.068,1.068,0,0,0,.9,1.642h4.657a1.067,1.067,0,1,1,0,2.135Z" transform="translate(0 0.001)"/>
      </g>
    </g>
  </g>
</svg>
