<svg xmlns="http://www.w3.org/2000/svg" xmlns:xlink="http://www.w3.org/1999/xlink" width="86" height="86" viewBox="0 0 86 86">
  <defs>
    <filter id="Ellipse_11539" x="0" y="0" width="86" height="86" filterUnits="userSpaceOnUse">
      <feOffset dy="3" input="SourceAlpha"/>
      <feGaussianBlur stdDeviation="3" result="blur"/>
      <feFlood flood-opacity="0.161"/>
      <feComposite operator="in" in2="blur"/>
      <feComposite in="SourceGraphic"/>
    </filter>
  </defs>
  <g id="Group_1143518" data-name="Group 1143518" transform="translate(-193.101 -2725)">
    <g transform="matrix(1, 0, 0, 1, 193.1, 2725)" filter="url(#Ellipse_11539)">
      <g id="Ellipse_11539-2" data-name="Ellipse 11539" transform="translate(9 6)" fill="#fbebfc" stroke="#7b277e" stroke-width="3">
        <circle cx="34" cy="34" r="34" stroke="none"/>
        <circle cx="34" cy="34" r="32.5" fill="none"/>
      </g>
    </g>
    <g id="breath_3506171" transform="translate(203.955 2733.052)">
      <g id="Group_1143495" data-name="Group 1143495">
        <g id="Group_1143489" data-name="Group 1143489">
          <path id="Path_904844" data-name="Path 904844" d="M56.43,39.97a10.507,10.507,0,0,0-4.24-3.87L52,36l-1.03.07A13.968,13.968,0,0,0,38,50H30v6h8v6H56V51.66a10.5,10.5,0,0,0,.43-11.69Z" fill="#fcd770"/>
        </g>
        <g id="Group_1143490" data-name="Group 1143490">
          <path id="Path_904845" data-name="Path 904845" d="M30,50v6H27a3,3,0,0,1,0-6Z" fill="#f0d0b4"/>
        </g>
        <g id="Group_1143491" data-name="Group 1143491">
          <path id="Path_904846" data-name="Path 904846" d="M34.13,12H30.55A1.558,1.558,0,0,1,29,10.45a1.516,1.516,0,0,1,.24-.83A16.213,16.213,0,0,1,42.99,2h5.2a13.808,13.808,0,0,1,7.92,25.12L52,30V24h1a3,3,0,0,0,0-6H52a5.674,5.674,0,0,0-.66-2.64,5.74,5.74,0,0,0-1.84-2.02l-.01-.01-.08.08A1.955,1.955,0,0,1,48,14H36.83a2.82,2.82,0,0,1-2.7-2Z" fill="#b27946"/>
        </g>
        <g id="Group_1143492" data-name="Group 1143492">
          <path id="Path_904847" data-name="Path 904847" d="M38,14H48a1.955,1.955,0,0,0,1.41-.59l.08-.08.01.01a5.74,5.74,0,0,1,1.84,2.02A5.674,5.674,0,0,1,52,18h1a3,3,0,0,1,0,6H52V36l-1.03.07A14.055,14.055,0,0,0,44,38.53V33.56a7.06,7.06,0,0,1-2.47.44H39a3,3,0,0,1-3-3,1,1,0,0,1,1-1,2.568,2.568,0,0,0,2.49-1.94L40,26H37a1,1,0,0,1-1-1V24h-.59a1.414,1.414,0,0,1-1-2.41L36,20V18.83A6.835,6.835,0,0,1,38,14Z" fill="#f0d0b4"/>
        </g>
        <g id="Group_1143493" data-name="Group 1143493">
          <path id="Path_904848" data-name="Path 904848" d="M6.44,12.96,6,13V9.57a7.258,7.258,0,0,1,6.54-7.22L16,2V5.43a7.258,7.258,0,0,1-6.54,7.22Z" fill="#b4dd7f"/>
        </g>
        <g id="Group_1143494" data-name="Group 1143494">
          <path id="Path_904849" data-name="Path 904849" d="M8.55,56.7,5,57V53.48a9.213,9.213,0,0,1,8.45-9.18L17,44v3.52A9.213,9.213,0,0,1,8.55,56.7Z" fill="#b4dd7f"/>
        </g>
      </g>
      <g id="Group_1143496" data-name="Group 1143496">
        <path id="Path_904850" data-name="Path 904850" d="M43,18a1,1,0,0,1-2,0V17H39v1a3,3,0,0,0,6,0V17H43Z"/>
        <path id="Path_904851" data-name="Path 904851" d="M53,35.39V30.521l3.683-2.578A14.81,14.81,0,0,0,48.19,1h-5.2a17.118,17.118,0,0,0-14.6,8.092A2.555,2.555,0,0,0,30.554,13h2.932a3.823,3.823,0,0,0,2.566,1.92A7.768,7.768,0,0,0,35,18.829v.757l-1.293,1.293A2.414,2.414,0,0,0,35,24.964V25a2,2,0,0,0,2,2h1.719l-.205.817A1.557,1.557,0,0,1,37,29a2,2,0,0,0-2,2,4,4,0,0,0,4,4h2.528A8.337,8.337,0,0,0,43,34.854v3.19A14.991,14.991,0,0,0,37.049,49H27a4,4,0,0,0,0,8H37v6H57V51.966A11.5,11.5,0,0,0,53,35.39ZM35,11.171a1.816,1.816,0,0,1,.536-1.293l1.171-1.171L35.293,7.293,34.122,8.464A3.793,3.793,0,0,0,33.017,11H30.554a.555.555,0,0,1-.47-.848A15.131,15.131,0,0,1,42.988,3h5.2a12.81,12.81,0,0,1,7.346,23.3L53,28.079V25a4,4,0,0,0,0-8h-.076a6.578,6.578,0,0,0-2.134-3.92A2.962,2.962,0,0,0,51,12a3,3,0,0,0-3-3H43v2h5a1,1,0,0,1,0,2H36.829A1.83,1.83,0,0,1,35,11.171Zm10,23.06a8.2,8.2,0,0,0,3.9-3.783l-1.789-.9A6.2,6.2,0,0,1,41.528,33H39a2,2,0,0,1-2-2,3.554,3.554,0,0,0,3.455-2.7l.826-3.3H37V23H35.414a.414.414,0,0,1-.293-.707L37,20.414V18.829A5.788,5.788,0,0,1,38.441,15H48a2.962,2.962,0,0,0,1.484-.409A4.591,4.591,0,0,1,51,18v1h2a2,2,0,0,1,0,4H51V35.069l-.1.007A14.809,14.809,0,0,0,45,36.783Zm6.038,2.84.752-.054A9.5,9.5,0,0,1,47.494,55H31V51H44.583A6.423,6.423,0,0,0,51,44.583V41.414a2.432,2.432,0,0,1,.707-1.707l-1.414-1.414A4.382,4.382,0,0,0,49,41.414v3.169A4.421,4.421,0,0,1,44.583,49H39.048a13.008,13.008,0,0,1,11.99-11.929ZM25,53a2,2,0,0,1,2-2h2v4H27A2,2,0,0,1,25,53Zm14,8V57h8.494A11.443,11.443,0,0,0,55,54.195V61Z"/>
        <path id="Path_904852" data-name="Path 904852" d="M4.781,16.625,6.953,13.91l2.612-.261A8.232,8.232,0,0,0,17,5.433V.9l-4.564.457A8.23,8.23,0,0,0,5,9.567v3.582L3.219,15.375ZM7,9.567a6.237,6.237,0,0,1,5.635-6.226L15,3.1V5.433a6.237,6.237,0,0,1-5.635,6.226l-.665.067,4.08-5.1L11.218,5.377,7,10.65Z"/>
        <path id="Path_904853" data-name="Path 904853" d="M4,53.483v3.1L1.293,59.293l1.414,1.414,2.741-2.741L8.63,57.7A10.279,10.279,0,0,0,18,47.517v-4.6l-4.629.386A10.279,10.279,0,0,0,4,53.483Zm12-8.4v2.43a8.269,8.269,0,0,1-7.537,8.191l-.826.069,6.07-6.07-1.414-1.414L6,54.586v-1.1a8.269,8.269,0,0,1,7.537-8.191Z"/>
        <path id="Path_904854" data-name="Path 904854" d="M29,25H10a3,3,0,0,1-3-3,1,1,0,0,1,2,0v1h2V22a3,3,0,0,0-6,0,5.006,5.006,0,0,0,5,5H29Z"/>
        <path id="Path_904855" data-name="Path 904855" d="M14,35H29V33H14a5.006,5.006,0,0,0-5,5,3,3,0,0,0,6,0V37H13v1a1,1,0,0,1-2,0A3,3,0,0,1,14,35Z"/>
        <path id="Path_904856" data-name="Path 904856" d="M17,29H29v2H17Z"/>
        <path id="Path_904857" data-name="Path 904857" d="M9,29h6v2H9Z"/>
      </g>
    </g>
  </g>
</svg>
