<svg xmlns="http://www.w3.org/2000/svg" xmlns:xlink="http://www.w3.org/1999/xlink" width="86" height="86" viewBox="0 0 86 86">
  <defs>
    <filter id="Ellipse_11540" x="0" y="0" width="86" height="86" filterUnits="userSpaceOnUse">
      <feOffset dy="3" input="SourceAlpha"/>
      <feGaussianBlur stdDeviation="3" result="blur"/>
      <feFlood flood-opacity="0.161"/>
      <feComposite operator="in" in2="blur"/>
      <feComposite in="SourceGraphic"/>
    </filter>
  </defs>
  <g id="Group_1143519" data-name="Group 1143519" transform="translate(-612.101 -2725)">
    <g transform="matrix(1, 0, 0, 1, 612.1, 2725)" filter="url(#Ellipse_11540)">
      <g id="Ellipse_11540-2" data-name="Ellipse 11540" transform="translate(9 6)" fill="#fbebfc" stroke="#7b277e" stroke-width="3">
        <circle cx="34" cy="34" r="34" stroke="none"/>
        <circle cx="34" cy="34" r="32.5" fill="none"/>
      </g>
    </g>
    <g id="red-riding-hood_2701836" transform="translate(596.33 2737.253)">
      <g id="Group_1143498" data-name="Group 1143498" transform="translate(35.136 0.828)">
        <path id="Path_904858" data-name="Path 904858" d="M102.528,292.067l-11.5-4.057v-7.96H78.649v7.96l-11.5,4.057a5.307,5.307,0,0,0-3.541,5v6.859h42.455v-6.859A5.307,5.307,0,0,0,102.528,292.067Z" transform="translate(-61.206 -249.976)" fill="#f6d190"/>
        <path id="Path_904859" data-name="Path 904859" d="M199.887,284.8a14.021,14.021,0,0,0,12.383,0v-4.75H199.887Z" transform="translate(-182.444 -249.976)" fill="#ecbd83"/>
        <path id="Path_904860" data-name="Path 904860" d="M87.663,26.524,78.171,13.868a15.921,15.921,0,0,0-25.473,0L43.206,26.524a7.12,7.12,0,0,0-.339,8l2.608,4.172h39.92L88,34.52a7.12,7.12,0,0,0-.339-8Z" transform="translate(-41.8 -7.5)" fill="#ff8086"/>
        <path id="Path_904861" data-name="Path 904861" d="M59.906,72.389s-4.228-2.248-7.46-4.131l-9.24,12.32a7.12,7.12,0,0,0-.339,8l2.608,4.172h6.278Z" transform="translate(-41.8 -61.554)" fill="#e5646e"/>
        <path id="Path_904862" data-name="Path 904862" d="M113.375,57.174l-6.338-8.45-2.18-2.907-.974-1.3a12.382,12.382,0,0,0-19.812,0L74.578,57.174a3.535,3.535,0,0,0-.7,1.905h0V65.5a9.73,9.73,0,0,0,5.308,8.667l1.518.775.339,2.077a8.845,8.845,0,0,0,4.273,6.215l1.134.662a.884.884,0,0,0,1.33-.764V65.215h12.383V83.134a.884.884,0,0,0,1.33.764l1.134-.662a8.845,8.845,0,0,0,4.273-6.215l.339-2.077,1.518-.775A9.729,9.729,0,0,0,114.07,65.5V59.079h0a3.534,3.534,0,0,0-.7-1.905Z" transform="translate(-70.342 -36.027)" fill="#ffc269"/>
        <path id="Path_904863" data-name="Path 904863" d="M175.987,104.522h-1.2a1.769,1.769,0,0,1-1.769-1.769V95.677h-17.69l-3.538,5.307v6.724a11.731,11.731,0,0,0,10.961,11.838,11.491,11.491,0,0,0,11.991-10.6h1.371a2.212,2.212,0,0,0,2.2-2.439A2.3,2.3,0,0,0,175.987,104.522Z" transform="translate(-139.654 -85.948)" fill="#ffe09f"/>
        <path id="Path_904864" data-name="Path 904864" d="M172.847,95.677l-1.365,2.048.074.04c3.7,1.987,11.078,5.385,18.932,5.814l.27.015a1.748,1.748,0,0,1-.222-.841V95.677Z" transform="translate(-157.173 -85.948)" fill="#f6d190"/>
        <path id="Path_904865" data-name="Path 904865" d="M155.328,108.062V95.679l-3.538,5.307v6.724a11.731,11.731,0,0,0,10.961,11.838,11.611,11.611,0,0,0,2.346-.132,11.491,11.491,0,0,1-9.769-11.355Z" transform="translate(-139.654 -85.949)" fill="#f6d190"/>
        <path id="Path_904866" data-name="Path 904866" d="M235.164,387.116l-1.816,1.816a.706.706,0,0,0-.15.778l1.816,4.237a.706.706,0,0,0,1.3,0l1.816-4.237a.706.706,0,0,0-.15-.778l-1.816-1.816A.706.706,0,0,0,235.164,387.116Z" transform="translate(-212.029 -345.046)" fill="#ff8086"/>
        <path id="Path_904867" data-name="Path 904867" d="M88.67,77.56l-3.745-2.247a12.2,12.2,0,0,0-.854,1.009L74.578,88.978a3.535,3.535,0,0,0-.7,1.905h0v2.437C77.146,92.714,86.489,89.917,88.67,77.56Z" transform="translate(-70.342 -67.831)" fill="#ffa95f"/>
        <path id="Path_904868" data-name="Path 904868" d="M191.187,50.833l-1.582-2.11-2.18-2.907-.974-1.3a12.377,12.377,0,0,0-19.76-.061C169.629,46.218,180.691,52.29,191.187,50.833Z" transform="translate(-152.91 -36.027)" fill="#ffc269"/>
        <path id="Path_904869" data-name="Path 904869" d="M102.528,384.73l-1.488-.525a16.785,16.785,0,0,1-32.4,0l-1.488.525a5.307,5.307,0,0,0-3.541,5v7.744h42.455v-7.744A5.307,5.307,0,0,0,102.528,384.73Z" transform="translate(-61.206 -342.64)" fill="#ff8086"/>
        <path id="Path_904870" data-name="Path 904870" d="M235.164,387.115l-1.816,1.816a.706.706,0,0,0-.15.778l1.816,4.237a.7.7,0,0,0,.649.428v-7.466A.7.7,0,0,0,235.164,387.115Z" transform="translate(-212.029 -345.045)" fill="#e5646e"/>
      </g>
      <g id="Group_1143499" data-name="Group 1143499" transform="translate(34.31 0)">
        <path id="Path_904871" data-name="Path 904871" d="M228,243.057a4.677,4.677,0,0,0,3.235-1.123.827.827,0,1,0-1.162-1.178,3.647,3.647,0,0,1-4.145,0,.828.828,0,1,0-1.162,1.178A4.677,4.677,0,0,0,228,243.057Z" transform="translate(-203.532 -213.979)"/>
        <path id="Path_904872" data-name="Path 904872" d="M201.3,184.4a.828.828,0,0,0-.828.828v.885a.828.828,0,1,0,1.655,0v-.885A.828.828,0,0,0,201.3,184.4Z" transform="translate(-182.136 -164.057)"/>
        <path id="Path_904873" data-name="Path 904873" d="M297.492,184.4a.828.828,0,0,0-.828.828v.885a.828.828,0,1,0,1.655,0v-.885A.828.828,0,0,0,297.492,184.4Z" transform="translate(-267.716 -164.057)"/>
        <path id="Path_904874" data-name="Path 904874" d="M193.282,162.011h1.769a.828.828,0,1,0,0-1.655h-1.769a.828.828,0,1,0,0,1.655Z" transform="translate(-175.005 -142.663)"/>
        <path id="Path_904875" data-name="Path 904875" d="M289.476,162.011h1.769a.828.828,0,1,0,0-1.655h-1.769a.828.828,0,1,0,0,1.655Z" transform="translate(-260.585 -142.663)"/>
        <path id="Path_904876" data-name="Path 904876" d="M73.932,39.708a10.5,10.5,0,0,0,5.557-7.34l2.551-4.081a7.953,7.953,0,0,0-.379-8.931L72.169,6.7a16.749,16.749,0,0,0-26.8,0L35.88,19.355a7.953,7.953,0,0,0-.379,8.931l2.551,4.081a10.5,10.5,0,0,0,5.557,7.34l1.145.584.07.428-4.016,1.417a6.144,6.144,0,0,0-4.093,5.785v7.744a.828.828,0,1,0,1.655,0V47.922A4.486,4.486,0,0,1,41.359,43.7l.652-.23a17.684,17.684,0,0,0,16.76,12.141,17.474,17.474,0,0,0,10.679-3.6,17.779,17.779,0,0,0,6.08-8.54l.652.23a4.486,4.486,0,0,1,2.989,4.224v7.744a.828.828,0,0,0,1.655,0V47.922a6.144,6.144,0,0,0-4.093-5.785L72.717,40.72l.07-.428ZM37.85,23.829a.806.806,0,0,0,0,.089v5L36.9,27.409a6.288,6.288,0,0,1,.3-7.061L46.7,7.692a15.094,15.094,0,0,1,24.149,0l9.492,12.656a6.288,6.288,0,0,1,.3,7.061l-.945,1.512v-5a.863.863,0,0,0,0-.089,4.35,4.35,0,0,0-.86-2.351l-6.338-8.45a.828.828,0,1,0-1.324.993l.846,1.128c-5.5.627-11.161-.976-15.011-2.475a49.139,49.139,0,0,1-7.039-3.406,11.554,11.554,0,0,1,18.049.548l.974,1.3a.828.828,0,1,0,1.324-.993l-.974-1.3a13.21,13.21,0,0,0-21.136,0L38.711,21.478a4.349,4.349,0,0,0-.86,2.351Zm32.419-1.713a.828.828,0,0,0-.828.828,10.671,10.671,0,0,1-21.341.019,24.962,24.962,0,0,0,5.316-10.02c.89.413,1.88.842,2.953,1.26a38.046,38.046,0,0,0,11.3,2.676v.758a2.6,2.6,0,0,0,2.6,2.6H71.6A1.384,1.384,0,0,1,71.6,23h-.5c0-.019,0-.038,0-.057a.828.828,0,0,0-.828-.828ZM44.361,38.233A8.863,8.863,0,0,1,39.505,30.3V23.9a2.7,2.7,0,0,1,.53-1.432l8.913-11.883c.507.308,1.536.908,2.96,1.625-.987,3.337-2.8,7.75-5.949,10.52A8.048,8.048,0,0,1,42.5,24.7a.828.828,0,0,0,.26,1.634,8.84,8.84,0,0,0,3.777-1.921,12.323,12.323,0,0,0,17.6,9.623v2.167a5.37,5.37,0,0,1-5.364,5.364h0a5.37,5.37,0,0,1-5.364-5.364.828.828,0,1,0-1.655,0V48.034l-1.22-.711a7.992,7.992,0,0,1-3.873-5.633l-.339-2.077a.827.827,0,0,0-.441-.6Zm16.081,7.008-1.672,3.9-1.672-3.9,1.672-1.672Zm13.525-2.324a16.111,16.111,0,0,1-5.521,7.775,15.832,15.832,0,0,1-9.676,3.262,16.023,16.023,0,0,1-15.2-11.036l1.533-.541A9.638,9.638,0,0,0,49.7,48.752l2.464,1.437a.827.827,0,0,0,1.245-.715V40.727A7.031,7.031,0,0,0,57,43l-1.467,1.467a.828.828,0,0,0-.175.911l2.653,6.191a.828.828,0,0,0,1.521,0l2.653-6.191a.828.828,0,0,0-.175-.911L60.542,43a7.031,7.031,0,0,0,3.593-2.272v8.747a.827.827,0,0,0,1.245.715l2.464-1.437a9.638,9.638,0,0,0,4.593-6.376Zm-2.306-3.909a.828.828,0,0,0-.441.6l-.339,2.077a7.991,7.991,0,0,1-3.873,5.633l-1.22.711V33.07a12.34,12.34,0,0,0,5.187-8.414H71.6a3.039,3.039,0,1,0,0-6.078H70.269a.942.942,0,0,1-.941-.941v-.7H69.5a22.3,22.3,0,0,0,3.648-.275l4.354,5.8a2.7,2.7,0,0,1,.53,1.432v6.4a8.863,8.863,0,0,1-4.856,7.929Z" transform="translate(-34.31 0)"/>
      </g>
    </g>
  </g>
</svg>
