<svg xmlns="http://www.w3.org/2000/svg" xmlns:xlink="http://www.w3.org/1999/xlink" width="108" height="108" viewBox="0 0 108 108">
  <defs>
    <filter id="Ellipse_11495" x="0" y="0" width="108" height="108" filterUnits="userSpaceOnUse">
      <feOffset dy="3" input="SourceAlpha"/>
      <feGaussianBlur stdDeviation="3" result="blur"/>
      <feFlood flood-opacity="0.161"/>
      <feComposite operator="in" in2="blur"/>
      <feComposite in="SourceGraphic"/>
    </filter>
  </defs>
  <g id="Group_1143553" data-name="Group 1143553" transform="translate(-198.101 -10776)">
    <g transform="matrix(1, 0, 0, 1, 198.1, 10776)" filter="url(#Ellipse_11495)">
      <g id="Ellipse_11495-2" data-name="Ellipse 11495" transform="translate(9 6)" fill="#ecf4fa" stroke="#7b277e" stroke-width="3">
        <circle cx="45" cy="45" r="45" stroke="none"/>
        <circle cx="45" cy="45" r="43.5" fill="none"/>
      </g>
    </g>
    <g id="razon" transform="translate(200.546 10782.001)">
      <path id="Path_904954" data-name="Path 904954" d="M78.9,164.471a8.562,8.562,0,0,1-17.115.378,6.852,6.852,0,0,1-5.489-6.714c0-.146.006-.29.015-.434a10.266,10.266,0,0,1-8.775-11.895,10.274,10.274,0,0,1,0-17.126,10.266,10.266,0,0,1,8.826-11.9,6.851,6.851,0,0,1,6.113-5.875A8.563,8.563,0,0,1,78.9,114.3v50.175Z" transform="translate(-27.345 -87.888)" fill="#fc8086"/>
      <path id="Path_904955" data-name="Path 904955" d="M124.283,265.638a6.86,6.86,0,0,0,5.117,4.485,8.562,8.562,0,0,0,17.115-.378V232.384C146.515,250.536,136.6,265.29,124.283,265.638Z" transform="translate(-94.96 -193.162)" fill="#fa4954"/>
      <path id="Path_904956" data-name="Path 904956" d="M256,164.471a8.562,8.562,0,0,0,17.115.378,6.852,6.852,0,0,0,5.489-6.714c0-.146-.006-.29-.015-.434a10.266,10.266,0,0,0,8.775-11.895,10.274,10.274,0,0,0,0-17.126,10.266,10.266,0,0,0-8.826-11.9,6.851,6.851,0,0,0-6.113-5.875A8.563,8.563,0,0,0,256,114.3v50.175Z" transform="translate(-204.444 -87.888)" fill="#fc8086"/>
      <path id="Path_904957" data-name="Path 904957" d="M291.962,256.622a10.238,10.238,0,0,0-3.017-7.269,29.8,29.8,0,0,1-29.787,29.159,30.12,30.12,0,0,1-3.158-.167v5.5a8.562,8.562,0,0,0,17.115.378,6.852,6.852,0,0,0,5.489-6.714c0-.146-.006-.29-.015-.434a10.266,10.266,0,0,0,8.775-11.895A10.263,10.263,0,0,0,291.962,256.622Z" transform="translate(-204.445 -207.267)" fill="#fa4954"/>
      <circle id="Ellipse_11550" data-name="Ellipse 11550" cx="11.987" cy="11.987" r="11.987" transform="translate(11.312 10.311)" fill="#97e4f9"/>
      <path id="Path_904958" data-name="Path 904958" d="M47.745,74.534A11.984,11.984,0,0,1,31.013,91.266,11.985,11.985,0,1,0,47.745,74.534Z" transform="translate(-17.432 -61.954)" fill="#0acefa"/>
      <circle id="Ellipse_11551" data-name="Ellipse 11551" cx="11.987" cy="11.987" r="11.987" transform="translate(67.823 10.311)" fill="#6df3bf"/>
      <path id="Path_904959" data-name="Path 904959" d="M382.559,74.534a11.984,11.984,0,0,1-16.732,16.732,11.985,11.985,0,1,0,16.732-16.732Z" transform="translate(-295.735 -61.954)" fill="#05e29a"/>
      <circle id="Ellipse_11552" data-name="Ellipse 11552" cx="11.987" cy="11.987" r="11.987" transform="translate(39.568 0.893)" fill="#fba65c"/>
      <path id="Path_904960" data-name="Path 904960" d="M215.152,18.732A11.984,11.984,0,0,1,198.42,35.464a11.985,11.985,0,1,0,16.732-16.732Z" transform="translate(-156.584 -15.571)" fill="#fb9538"/>
      <path id="Path_904961" data-name="Path 904961" d="M66.474,104.273A1.271,1.271,0,0,0,67.745,103V91.356a1.271,1.271,0,0,0-2.543,0v.485a1.642,1.642,0,0,1-1.64,1.64,1.271,1.271,0,0,0,0,2.543,4.159,4.159,0,0,0,1.64-.335V103A1.271,1.271,0,0,0,66.474,104.273Z" transform="translate(-43.431 -74.881)"/>
      <path id="Path_904962" data-name="Path 904962" d="M93.069,22.3a13.225,13.225,0,0,0-2.014-7.028,1.271,1.271,0,1,0-2.155,1.35,10.706,10.706,0,1,1-3.871-3.683,1.271,1.271,0,1,0,1.24-2.22A13.26,13.26,0,0,0,66.9,19.29a9.8,9.8,0,0,0-2.875-1.907A13.26,13.26,0,0,0,54.874.04,1.271,1.271,0,0,0,54.239,2.5a10.716,10.716,0,1,1-5.369,0A1.271,1.271,0,0,0,48.236.04a13.26,13.26,0,0,0-9.151,17.342A9.8,9.8,0,0,0,36.21,19.29a13.26,13.26,0,0,0-19.369-8.573,1.271,1.271,0,1,0,1.24,2.22,10.714,10.714,0,1,1-3.871,3.683,1.271,1.271,0,1,0-2.155-1.35A13.26,13.26,0,0,0,19.519,35a11.57,11.57,0,0,0-.744,4.076c0,.371.019.746.056,1.122q-.1.074-.19.149a11.71,11.71,0,0,0-4.318,9,11.526,11.526,0,0,0,4.507,9.151c-.035.371-.055.745-.055,1.123h0A11.577,11.577,0,0,0,27.7,70.874a8.15,8.15,0,0,0,5.552,7.087,9.83,9.83,0,0,0,18.3,3.45,9.83,9.83,0,0,0,18.3-3.45,8.15,8.15,0,0,0,5.552-7.087A11.577,11.577,0,0,0,84.336,59.63h0c0-.378-.02-.752-.055-1.123a11.526,11.526,0,0,0,4.507-9.151,11.709,11.709,0,0,0-4.318-9q-.093-.075-.19-.149c.037-.376.056-.751.056-1.122A11.57,11.57,0,0,0,83.591,35,13.28,13.28,0,0,0,93.069,22.3ZM42.992,83.874A7.271,7.271,0,0,1,35.863,78.1a8.17,8.17,0,0,0,6.711-8.04,1.271,1.271,0,0,0-2.543,0,5.615,5.615,0,0,1-5.464,5.622,5.591,5.591,0,0,1-4.292-4.678A11.539,11.539,0,0,0,35.141,69.3a1.271,1.271,0,1,0-1.358-2.15,9.005,9.005,0,0,1-4.727,1.392,9.019,9.019,0,0,1-7.74-8.909h0a8.959,8.959,0,0,1,4.259-7.654,1.271,1.271,0,0,0-1.342-2.16,11.5,11.5,0,0,0-4.771,5.861,8.981,8.981,0,0,1-2.6-6.321,9.141,9.141,0,0,1,3.372-7.026c.19-.153.4-.3.61-.448l.048-.03a9,9,0,0,1,11.124.929,1.271,1.271,0,0,0,1.738-1.856,11.545,11.545,0,0,0-12.43-2.186,9,9,0,0,1,.737-3.242c.407.038.818.059,1.234.059A13.279,13.279,0,0,0,36.408,24.289a5.586,5.586,0,0,1,4.97,5.545,1.271,1.271,0,0,0,2.543,0,8.133,8.133,0,0,0-6.62-7.98,7.265,7.265,0,0,1,2.879-2.17,13.275,13.275,0,0,0,10.1,6.393V36.485a3.7,3.7,0,0,1-3.695,3.695,1.271,1.271,0,0,0,0,2.543,6.2,6.2,0,0,0,3.695-1.216v7.615a9.012,9.012,0,0,1-5.161,2.249,1.271,1.271,0,0,0,.115,2.537q.058,0,.118-.005a11.547,11.547,0,0,0,4.928-1.633v6.038A3.7,3.7,0,0,1,46.588,62a1.271,1.271,0,1,0,0,2.543,6.2,6.2,0,0,0,3.695-1.216V76.583a7.3,7.3,0,0,1-7.291,7.291Zm38.79-45.135a11.545,11.545,0,0,0-12.43,2.186,1.271,1.271,0,0,0,1.738,1.856,9,9,0,0,1,11.124-.929l.048.03c.214.144.42.3.61.448a9.141,9.141,0,0,1,3.372,7.026,8.981,8.981,0,0,1-2.6,6.321,11.5,11.5,0,0,0-4.771-5.861,1.271,1.271,0,0,0-1.342,2.16,8.959,8.959,0,0,1,4.259,7.654h0a9.019,9.019,0,0,1-7.74,8.909,9.007,9.007,0,0,1-4.727-1.392,1.271,1.271,0,0,0-1.358,2.15,11.543,11.543,0,0,0,4.866,1.711,5.591,5.591,0,0,1-4.292,4.678,5.614,5.614,0,0,1-5.464-5.622,1.271,1.271,0,0,0-2.543,0,8.17,8.17,0,0,0,6.711,8.04,7.29,7.29,0,0,1-14.42-1.522V63.329a6.2,6.2,0,0,0,3.695,1.216,1.271,1.271,0,0,0,0-2.543,3.7,3.7,0,0,1-3.695-3.695V52.269A11.545,11.545,0,0,0,57.754,53.9c.04,0,.079.005.118.005a1.271,1.271,0,0,0,.115-2.537,9.011,9.011,0,0,1-5.161-2.249V41.506a6.2,6.2,0,0,0,3.695,1.216,1.271,1.271,0,0,0,0-2.543,3.7,3.7,0,0,1-3.695-3.695V26.076a13.275,13.275,0,0,0,10.1-6.393,7.264,7.264,0,0,1,2.879,2.17,8.133,8.133,0,0,0-6.62,7.98,1.271,1.271,0,1,0,2.543,0,5.586,5.586,0,0,1,4.97-5.545A13.279,13.279,0,0,0,79.81,35.557c.416,0,.828-.022,1.234-.059a9,9,0,0,1,.737,3.242Z" transform="translate(0 0)"/>
      <path id="Path_904963" data-name="Path 904963" d="M405.72,92.628a1.271,1.271,0,1,0,0-2.543H399.9a1.271,1.271,0,0,0-1.271,1.271v4.11a2.987,2.987,0,0,0,2.984,2.984h2.4a.441.441,0,0,1,.441.441v2.4a.441.441,0,0,1-.441.441H399.9a1.271,1.271,0,1,0,0,2.543h4.11a2.987,2.987,0,0,0,2.984-2.984v-2.4a2.987,2.987,0,0,0-2.984-2.984h-2.4a.441.441,0,0,1-.441-.441V92.628Z" transform="translate(-322.998 -74.881)"/>
      <path id="Path_904964" data-name="Path 904964" d="M231.219,37.253a1.271,1.271,0,0,0,2.543,0,.427.427,0,0,1,.427-.427h2.426a.427.427,0,0,1,.427.427V39.68a.427.427,0,0,1-.427.427h-1.7a1.271,1.271,0,1,0,0,2.543h1.7a.427.427,0,0,1,.427.427V45.5a.427.427,0,0,1-.427.427h-2.426a.427.427,0,0,1-.427-.427,1.271,1.271,0,0,0-2.543,0,2.973,2.973,0,0,0,2.97,2.97h2.426a2.973,2.973,0,0,0,2.97-2.97V43.076a2.95,2.95,0,0,0-.537-1.7,2.95,2.95,0,0,0,.537-1.7V37.253a2.973,2.973,0,0,0-2.97-2.969h-2.426A2.973,2.973,0,0,0,231.219,37.253Z" transform="translate(-183.847 -28.498)"/>
    </g>
  </g>
</svg>
