<svg xmlns="http://www.w3.org/2000/svg" xmlns:xlink="http://www.w3.org/1999/xlink" width="86" height="86" viewBox="0 0 86 86">
  <defs>
    <filter id="Ellipse_11541" x="0" y="0" width="86" height="86" filterUnits="userSpaceOnUse">
      <feOffset dy="3" input="SourceAlpha"/>
      <feGaussianBlur stdDeviation="3" result="blur"/>
      <feFlood flood-opacity="0.161"/>
      <feComposite operator="in" in2="blur"/>
      <feComposite in="SourceGraphic"/>
    </filter>
  </defs>
  <g id="Group_1143520" data-name="Group 1143520" transform="translate(-1034.101 -2725)">
    <g transform="matrix(1, 0, 0, 1, 1034.1, 2725)" filter="url(#Ellipse_11541)">
      <g id="Ellipse_11541-2" data-name="Ellipse 11541" transform="translate(9 6)" fill="#fbebfc" stroke="#7b277e" stroke-width="3">
        <circle cx="34" cy="34" r="34" stroke="none"/>
        <circle cx="34" cy="34" r="32.5" fill="none"/>
      </g>
    </g>
    <g id="breath_2451263" transform="translate(1047.254 2729)">
      <g id="Group_1143508" data-name="Group 1143508" transform="translate(1.962 1.948)">
        <g id="Group_1143501" data-name="Group 1143501" transform="translate(4.186 45.555)">
          <path id="Path_904877" data-name="Path 904877" d="M11.976,50.058a12.066,12.066,0,0,1,3.161,2.272,11.756,11.756,0,0,0,12.017,2.842l.425-.145a17.04,17.04,0,0,1,3.567,6.545h-17.4A10.554,10.554,0,0,0,6.33,52.958a11.583,11.583,0,0,1,1.46-1.073,5.769,5.769,0,0,0,1.953-2.03,6.451,6.451,0,0,0,.358-.735Z" transform="translate(-6.33 -49.12)" fill="#fcd770"/>
        </g>
        <g id="Group_1143502" data-name="Group 1143502" transform="translate(0 3.867)">
          <path id="Path_904878" data-name="Path 904878" d="M16.057,7.934a4.085,4.085,0,0,1,.609-.8A3.891,3.891,0,0,1,19.4,6h7.734a5.805,5.805,0,0,1,5.8,5.8,5.809,5.809,0,0,1-4.36,5.617,5.449,5.449,0,0,1-1.44.184H19.818a5.808,5.808,0,0,0-5.772,5.221L13.6,27.269,12.47,26.138A2.736,2.736,0,0,0,7.8,28.072a5.593,5.593,0,0,0,3.828,5.308l1.972.657-1.16,1.45a10.621,10.621,0,0,0-2.272,7.7l.174,1.769a5.811,5.811,0,0,1-.387,2.736,6.451,6.451,0,0,1-.358.735A22.661,22.661,0,0,1,2,31.494V20.5A12.568,12.568,0,0,1,14.568,7.934Z" transform="translate(-2 -6)" fill="#b27946"/>
        </g>
        <g id="Group_1143503" data-name="Group 1143503" transform="translate(0 49.393)">
          <path id="Path_904879" data-name="Path 904879" d="M13.6,61.7H2L2.184,60.4a11.705,11.705,0,0,1,1.808-4.8A12.06,12.06,0,0,1,6.186,53.09,10.554,10.554,0,0,1,13.6,61.7Z" transform="translate(-2 -53.09)" fill="#f0d0b4"/>
        </g>
        <g id="Group_1143504" data-name="Group 1143504" transform="translate(5.801 15.285)">
          <path id="Path_904880" data-name="Path 904880" d="M28.834,37.329l-.029.319A5.941,5.941,0,0,1,27.6,40.742a6.056,6.056,0,0,1-3.722,2.291,5.711,5.711,0,0,1-1.083.1h-.068a6.036,6.036,0,0,1-2.156-.387v6.187l2.552,1.411a17.244,17.244,0,0,1,4.515,3.645l-.425.145a11.717,11.717,0,0,1-12.017-2.842,12.065,12.065,0,0,0-3.161-2.272l-1.876-.938a5.811,5.811,0,0,0,.387-2.736l-.174-1.769a10.621,10.621,0,0,1,2.272-7.7l1.16-1.45-1.972-.657A5.593,5.593,0,0,1,8,28.464a2.734,2.734,0,0,1,4.67-1.934L13.8,27.661l.445-4.447a5.808,5.808,0,0,1,5.772-5.221h7.318a5.449,5.449,0,0,0,1.44-.184l.135.232A16.071,16.071,0,0,1,31.2,26.318a10.82,10.82,0,0,0,.319,2.63l.648,2.581-1.7.57a1.929,1.929,0,0,0-1.315,1.653Z" transform="translate(-8 -17.81)" fill="#f0d0b4"/>
        </g>
        <g id="Group_1143505" data-name="Group 1143505" transform="translate(38.671)">
          <path id="Path_904881" data-name="Path 904881" d="M42.135,15.535,42,11.813a7.723,7.723,0,0,1,4.534-7.038L52.635,2V7.143a7.724,7.724,0,0,1-6.352,7.609Z" transform="translate(-42 -2)" fill="#b4dd7f"/>
        </g>
        <g id="Group_1143506" data-name="Group 1143506" transform="translate(50.272 10.635)">
          <path id="Path_904882" data-name="Path 904882" d="M54,20.734V18.7a4.838,4.838,0,0,1,3.664-4.689L61.734,13v2.5A4.841,4.841,0,0,1,57.5,20.3Z" transform="translate(-54 -13)" fill="#b4dd7f"/>
        </g>
        <g id="Group_1143507" data-name="Group 1143507" transform="translate(54.139 26.103)">
          <path id="Path_904883" data-name="Path 904883" d="M61.867,30.934v1.934H59.934A1.939,1.939,0,0,1,58,30.934V29h1.934A1.939,1.939,0,0,1,61.867,30.934Z" transform="translate(-58 -29)" fill="#a0d468"/>
        </g>
      </g>
      <g id="Group_1143509" data-name="Group 1143509" transform="translate(0.847 0.447)">
        <path id="Path_904884" data-name="Path 904884" d="M25.9,27.967A.968.968,0,0,1,24.934,27H23a2.9,2.9,0,0,0,5.8,0H26.867A.968.968,0,0,1,25.9,27.967Z" transform="translate(-1.583 -1.329)"/>
        <path id="Path_904885" data-name="Path 904885" d="M41.075,47.918l-4.586-1.376A13.945,13.945,0,0,1,28.52,40.35a7.023,7.023,0,0,0,1.007-3.043l.354-3.889a.966.966,0,0,1,.656-.829l2.55-.85-.861-3.447a9.832,9.832,0,0,1-.295-2.4,17.065,17.065,0,0,0-1.994-7.99A6.762,6.762,0,0,0,27.1,5H19.364a4.811,4.811,0,0,0-3.842,1.934H14.53A13.55,13.55,0,0,0,.995,20.468V31.461a23.629,23.629,0,0,0,7.3,17.062,4.857,4.857,0,0,1-1.2,1.073,12.806,12.806,0,0,0-5.9,9.068L.847,61.073H60.935V59.139H52.016A16.178,16.178,0,0,0,41.075,47.918Zm-5.142.477,4.586,1.376A14.247,14.247,0,0,1,50,59.139H47.194a10.316,10.316,0,0,0-7.083-7.45L33.461,49.7A14.835,14.835,0,0,1,25.086,43.2a6.958,6.958,0,0,0,2.126-1.295,15.86,15.86,0,0,0,8.72,6.486Zm1.3,6.718-3.957-1.7-.762,1.777,3.957,1.7a5.839,5.839,0,0,1,2.63,2.25H31.657a17.817,17.817,0,0,0-8.308-10.064L21.3,47.936V43.565a7.643,7.643,0,0,0,1.254.106c.19,0,.377-.012.564-.026a16.777,16.777,0,0,0,9.792,7.9l6.65,1.994a8.412,8.412,0,0,1,5.655,5.6H41.29a7.784,7.784,0,0,0-4.054-4.027ZM30,25.892a11.833,11.833,0,0,0,.351,2.867l.427,1.709-.851.283a2.9,2.9,0,0,0-1.971,2.489l-.246,2.7h-1.35a2.517,2.517,0,0,1-2.263-1.4l-1.73.865a4.44,4.44,0,0,0,3.993,2.468h1.1a5.054,5.054,0,0,1-4.975,3.867,5.148,5.148,0,0,1-1.925-.368l-3.741-1.5-.718,1.8,3.26,1.3v6.1l3.045,1.692a16.123,16.123,0,0,1,3.157,2.315,10.7,10.7,0,0,1-9.924-2.9,13.132,13.132,0,0,0-3.412-2.459l-1.147-.573a6.785,6.785,0,0,0,.183-2.329l-.177-1.766a9.614,9.614,0,0,1,2.071-7l2.024-2.53-3.29-1.1a4.62,4.62,0,0,1-3.166-4.39,1.768,1.768,0,0,1,3.018-1.25l2.575,2.575.647-6.475a4.819,4.819,0,0,1,4.81-4.353H27.1a6.685,6.685,0,0,0,.94-.073A15.122,15.122,0,0,1,30,25.892ZM2.928,31.461V20.468a11.614,11.614,0,0,1,11.6-11.6h.1a4.834,4.834,0,0,0,4.736,5.8h.967V12.734h-.967a2.9,2.9,0,0,1,0-5.8H27.1a4.834,4.834,0,0,1,0,9.668H19.779a6.747,6.747,0,0,0-6.734,6.094L12.8,25.139a3.7,3.7,0,0,0-6.007,2.9,6.553,6.553,0,0,0,4.488,6.225l.659.219-.292.364a11.534,11.534,0,0,0-2.485,8.4l.177,1.766A4.855,4.855,0,0,1,9.2,46.708,21.687,21.687,0,0,1,2.928,31.461Zm7.417,17.483,1.02.509a11.194,11.194,0,0,1,2.91,2.1,12.663,12.663,0,0,0,12.8,3.128,15.922,15.922,0,0,1,2.544,4.461H14.369a11.553,11.553,0,0,0-6.25-7.905,6.754,6.754,0,0,0,2.226-2.29Zm-7.24,9.994a10.87,10.87,0,0,1,3.256-6.327,9.583,9.583,0,0,1,6,6.53H3.076Z" transform="translate(-0.847 -0.598)"/>
        <path id="Path_904886" data-name="Path 904886" d="M52.468,37H37v1.934H52.468A7.743,7.743,0,0,1,60.2,46.668a3.867,3.867,0,0,1-7.734,0,1.934,1.934,0,1,1,3.867,0h1.934a3.867,3.867,0,0,0-7.734,0,5.8,5.8,0,0,0,11.6,0A9.679,9.679,0,0,0,52.468,37Z" transform="translate(-2.048 -1.661)"/>
        <path id="Path_904887" data-name="Path 904887" d="M51.568,32.867H39V34.8H51.568a2.9,2.9,0,0,0,0-5.8H50.6v1.934h.967a.967.967,0,1,1,0,1.934Z" transform="translate(-2.115 -1.396)"/>
        <path id="Path_904888" data-name="Path 904888" d="M35,41h1.934v1.934H35Z" transform="translate(-1.982 -1.794)"/>
        <path id="Path_904889" data-name="Path 904889" d="M39,41h1.934v1.934H39Z" transform="translate(-2.115 -1.794)"/>
        <path id="Path_904890" data-name="Path 904890" d="M43,41h1.934v1.934H43Z" transform="translate(-2.247 -1.794)"/>
        <path id="Path_904891" data-name="Path 904891" d="M37.709,21.913l4.751-5.543,3.806-.715A8.7,8.7,0,0,0,53.41,7.095V.447L45.942,3.841a8.733,8.733,0,0,0-5.1,7.957l.125,3.342-4.726,5.514ZM46.742,5.6,51.476,3.45V7.1a6.765,6.765,0,0,1-5.562,6.659l-3.042.571-.1-2.564A6.784,6.784,0,0,1,46.742,5.6Z" transform="translate(-2.023 -0.447)"/>
        <path id="Path_904892" data-name="Path 904892" d="M57.3,13.038a5.793,5.793,0,0,0-4.393,5.628v1.626l-2.617,2.617,1.367,1.367,2.665-2.665,3.171-.4a5.81,5.81,0,0,0,5.081-5.756V11.719Zm3.341,2.42a3.872,3.872,0,0,1-3.388,3.837l-2.413.3v-.931a3.862,3.862,0,0,1,2.929-3.751l2.871-.718Z" transform="translate(-2.49 -0.821)"/>
        <path id="Path_904893" data-name="Path 904893" d="M59.9,28H57v2.9a2.9,2.9,0,0,0,2.9,2.9h2.9V30.9A2.9,2.9,0,0,0,59.9,28Zm.967,3.867H59.9a.968.968,0,0,1-.967-.967v-.967H59.9a.968.968,0,0,1,.967.967Z" transform="translate(-2.713 -1.362)"/>
      </g>
    </g>
  </g>
</svg>
